<svg width="64" height="64" viewBox="0 0 64 64" fill="none" xmlns="http://www.w3.org/2000/svg">
<path d="M32 56V63H21C21.49 60.14 20.74 56 18 54C14.4472 51.2532 11.1045 48.2448 8 45C5 42 1 32 1 30C1.00248 29.5539 1.154 29.1215 1.43047 28.7715C1.70694 28.4214 2.09248 28.1739 2.52582 28.0681C2.95916 27.9624 3.4154 28.0045 3.82203 28.1879C4.22866 28.3712 4.56234 28.6852 4.77 29.08C9.18 39.54 10.22 40.22 20 46C18.5073 44.1109 17.1696 42.1044 16 40C13 35 15.88 34.29 18 35C21 36 23 42 26 44C29 46 32 52.11 32 56Z" fill="url(#paint0_linear)"/>
<path d="M63 30C63 32 59 42 56 45C52.8955 48.2448 49.5528 51.2532 46 54C43.29 56 42.49 60 43 63H32C32 56 31.86 55.34 32.35 53.39C33.21 49.75 35.6 45.6 38 44C41 42 43 36 46 35C48.12 34.29 51 35 48 40C46.8304 42.1044 45.4927 44.1109 44 46C53.78 40.22 54.81 39.54 59.21 29.09C59.4117 28.6851 59.7447 28.3606 60.1547 28.1694C60.5646 27.9782 61.0272 27.9316 61.467 28.0372C61.9069 28.1428 62.2979 28.3944 62.5763 28.7509C62.8547 29.1073 63.0041 29.5477 63 30Z" fill="url(#paint1_linear)"/>
<path d="M10 1H18C21.713 1 25.274 2.475 27.8995 5.1005C30.525 7.72601 32 11.287 32 15V17H24C20.287 17 16.726 15.525 14.1005 12.8995C11.475 10.274 10 6.71303 10 3V1Z" fill="url(#paint2_linear)"/>
<path d="M40 20L32 20V18C32 14.287 33.475 10.726 36.1005 8.1005C38.726 5.475 42.287 4 46 4L54 4V6C54 9.71303 52.525 13.274 49.8995 15.8995C47.274 18.525 43.713 20 40 20Z" fill="url(#paint3_linear)"/>
<path d="M32 15V17H24C20.287 17 16.726 15.525 14.1005 12.8995C11.475 10.274 10 6.71303 10 3V1C10 4.71303 11.475 8.27399 14.1005 10.8995C16.726 13.525 20.287 15 24 15H32Z" fill="#7ECE67"/>
<path d="M54 4V6C54 9.71303 52.525 13.274 49.8995 15.8995C47.274 18.525 43.713 20 40 20H32V18H40C43.713 18 47.274 16.525 49.8995 13.8995C52.525 11.274 54 7.71303 54 4Z" fill="#7ECE67"/>
<path d="M45 11C39.18 11 33.89 18.9 33 20.29V36C33 36.2652 32.8946 36.5196 32.7071 36.7071C32.5196 36.8946 32.2652 37 32 37C31.7348 37 31.4804 36.8946 31.2929 36.7071C31.1054 36.5196 31 36.2652 31 36V20C30.9987 18.0877 30.3541 16.2315 29.17 14.73C27.18 12.22 23.2 8 19 8C18.7348 8 18.4804 7.89464 18.2929 7.70711C18.1054 7.51957 18 7.26522 18 7C18 6.73478 18.1054 6.48043 18.2929 6.29289C18.4804 6.10536 18.7348 6 19 6C23.79 6 28 10.07 30.74 13.49C31.6228 14.6158 32.2691 15.9083 32.64 17.29C34.93 14.21 39.61 9 45 9C45.2652 9 45.5196 9.10536 45.7071 9.29289C45.8946 9.48043 46 9.73478 46 10C46 10.2652 45.8946 10.5196 45.7071 10.7071C45.5196 10.8946 45.2652 11 45 11Z" fill="url(#paint4_linear)"/>
<path d="M33 33V36C33 36.2652 32.8946 36.5196 32.7071 36.7071C32.5196 36.8946 32.2652 37 32 37C31.7348 37 31.4804 36.8946 31.2929 36.7071C31.1054 36.5196 31 36.2652 31 36V33H33Z" fill="#4DA67F"/>
<path d="M40.81 40.9C40.067 42.0936 39.1152 43.1437 38 44C35 46 32 52 32 56C32 52 29 46 26 44C24.8848 43.1437 23.933 42.0936 23.19 40.9C29.2 33.06 34.79 33.05 40.81 40.9Z" fill="url(#paint5_linear)"/>
<path d="M40.81 40.9C40.067 42.0936 39.1152 43.1437 38 44C35 46 32 52 32 56C32 52 29 46 26 44C24.8848 43.1437 23.933 42.0936 23.19 40.9L23.34 40.71C25.76 45.09 38.24 45.08 40.66 40.71L40.81 40.9Z" fill="#8A6762"/>
<path d="M32 59C31.6999 59.6022 31.2376 60.1085 30.6651 60.4619C30.0926 60.8153 29.4328 61.0017 28.76 61H27.83C26.3435 60.9998 24.8797 60.635 23.5669 59.9377C22.2541 59.2403 21.1324 58.2316 20.3 57C21.0411 58.9076 21.2821 60.973 21 63H32C32 58.24 32 59.1 32 59Z" fill="#EAB39B"/>
<path d="M43.7 57C42.8676 58.2316 41.7459 59.2403 40.4331 59.9377C39.1203 60.635 37.6565 60.9998 36.17 61C34.89 61 33.04 61.08 32 59V63H43C42.7116 60.9731 42.9527 58.9061 43.7 57Z" fill="#EAB39B"/>
<defs>
<linearGradient id="paint0_linear" x1="16.5" y1="63" x2="16.5" y2="28" gradientUnits="userSpaceOnUse">
<stop stop-color="#F2C4B0"/>
<stop offset="1" stop-color="#FFE3D7"/>
</linearGradient>
<linearGradient id="paint1_linear" x1="1505.05" y1="27.9819" x2="1505.05" y2="1008.49" gradientUnits="userSpaceOnUse">
<stop stop-color="#F2C4B0"/>
<stop offset="1" stop-color="#FFE3D7"/>
</linearGradient>
<linearGradient id="paint2_linear" x1="21" y1="17" x2="21" y2="1" gradientUnits="userSpaceOnUse">
<stop stop-color="#8CDD79"/>
<stop offset="1" stop-color="#D4E6B6"/>
</linearGradient>
<linearGradient id="paint3_linear" x1="978" y1="324" x2="978" y2="68" gradientUnits="userSpaceOnUse">
<stop stop-color="#8CDD79"/>
<stop offset="1" stop-color="#D4E6B6"/>
</linearGradient>
<linearGradient id="paint4_linear" x1="32" y1="36.99" x2="32" y2="6" gradientUnits="userSpaceOnUse">
<stop stop-color="#6AB891"/>
<stop offset="1" stop-color="#85CBA9"/>
</linearGradient>
<linearGradient id="paint5_linear" x1="32" y1="56" x2="32" y2="35.02" gradientUnits="userSpaceOnUse">
<stop stop-color="#9B756D"/>
<stop offset="1" stop-color="#BC9388"/>
</linearGradient>
</defs>
</svg>
