<svg width="523" height="342" viewBox="0 0 523 342" fill="none" xmlns="http://www.w3.org/2000/svg">
<g clip-path="url(#clip0)">
<path d="M489.51 12.7067H207.225C196.43 12.7067 187.679 21.4566 187.679 32.2501V243.538C187.679 254.332 196.43 263.081 207.225 263.081H489.51C500.304 263.081 509.055 254.332 509.055 243.538V32.2501C509.055 21.4566 500.304 12.7067 489.51 12.7067Z" fill="#D8E9F1"/>
<path d="M509.056 163.477H413.126L344.212 123.375C342.98 122.659 341.959 121.633 341.248 120.398C340.538 119.163 340.164 117.764 340.163 116.34V81.2184" stroke="white" stroke-width="10" stroke-miterlimit="10"/>
<path d="M340.163 70.8089V12.7068" stroke="white" stroke-width="10" stroke-miterlimit="10"/>
<path d="M294.09 164.173V53.1587" stroke="white" stroke-width="10" stroke-miterlimit="10"/>
<path d="M187.679 113.945H228.636C230.835 113.945 233.012 113.512 235.044 112.671C237.075 111.829 238.921 110.596 240.476 109.041C242.031 107.486 243.265 105.641 244.106 103.609C244.948 101.578 245.381 99.4005 245.381 97.2017V53.5242" stroke="white" stroke-width="10" stroke-miterlimit="10"/>
<path d="M245.379 64.1311C245.379 67.2714 246.626 70.2831 248.847 72.5036C251.068 74.7241 254.08 75.9716 257.22 75.9716H334.92" stroke="white" stroke-width="10" stroke-miterlimit="10"/>
<path d="M345.338 75.9716H424.929C428.279 75.9713 431.514 74.7475 434.025 72.5304L455.535 53.5243L498.332 15.6637" stroke="white" stroke-width="10" stroke-miterlimit="10" stroke-linecap="round"/>
<path d="M345.338 75.9716V76.0136C345.338 77.3885 344.794 78.7076 343.825 79.6829C342.856 80.6581 341.54 81.2102 340.165 81.2184H340.132C339.448 81.2196 338.77 81.0858 338.138 80.8248C337.505 80.5637 336.931 80.1805 336.447 79.697C335.962 79.2136 335.578 78.6394 335.316 78.0074C335.054 77.3753 334.92 76.6978 334.92 76.0136V75.9716C334.931 74.5988 335.483 73.2859 336.458 72.3191C337.433 71.3524 338.75 70.8101 340.123 70.8107H340.156C341.525 70.8159 342.837 71.3607 343.807 72.3269C344.777 73.293 345.327 74.6026 345.338 75.9716Z" stroke="white" stroke-width="10" stroke-miterlimit="10"/>
<path d="M509.056 53.5297H455.535" stroke="white" stroke-width="10" stroke-miterlimit="10"/>
<path d="M509.056 133.706H413.126" stroke="white" stroke-width="10" stroke-miterlimit="10"/>
<path d="M413.126 12.7068V191.777C413.125 194.07 412.214 196.268 410.593 197.889C408.972 199.509 406.773 200.42 404.481 200.42H187.679" stroke="white" stroke-width="10" stroke-miterlimit="10"/>
<path d="M444.754 263.902L383.563 200.42" stroke="white" stroke-width="10" stroke-miterlimit="10"/>
<path d="M232.108 163.462L209.953 113.945" stroke="white" stroke-width="10" stroke-miterlimit="10"/>
<path d="M187.679 53.5297H340.131" stroke="white" stroke-width="10" stroke-miterlimit="10"/>
<path d="M412.429 12.2974L345.601 75.5604" stroke="white" stroke-width="5" stroke-miterlimit="10"/>
<path d="M413.126 18.5475L352.901 75.5604" stroke="white" stroke-width="5" stroke-miterlimit="10"/>
<path d="M413.126 25.4573L360.198 75.5604" stroke="white" stroke-width="5" stroke-miterlimit="10"/>
<path d="M413.126 32.3654L367.496 75.5604" stroke="white" stroke-width="5" stroke-miterlimit="10"/>
<path d="M413.126 46.1831L382.092 75.5604" stroke="white" stroke-width="5" stroke-miterlimit="10"/>
<path d="M413.126 39.275L374.794 75.5603" stroke="white" stroke-width="5" stroke-miterlimit="10"/>
<path d="M413.126 53.0929L389.39 75.5603" stroke="white" stroke-width="5" stroke-miterlimit="10"/>
<path d="M413.126 60.0009L396.69 75.5603" stroke="white" stroke-width="5" stroke-miterlimit="10"/>
<path d="M413.126 66.9108L403.987 75.5604" stroke="white" stroke-width="5" stroke-miterlimit="10"/>
<path d="M354.045 12.2974L340.163 25.4372" stroke="white" stroke-width="5" stroke-miterlimit="10"/>
<path d="M346.747 12.2974L340.163 18.5292" stroke="white" stroke-width="5" stroke-miterlimit="10"/>
<path d="M361.342 12.2974L340.163 32.347" stroke="white" stroke-width="5" stroke-miterlimit="10"/>
<path d="M368.64 12.2974L340.131 39.2861" stroke="white" stroke-width="5" stroke-miterlimit="10"/>
<path d="M383.238 12.2974L340.131 53.1039" stroke="white" stroke-width="5" stroke-miterlimit="10"/>
<path d="M375.94 12.2974L340.131 46.1941" stroke="white" stroke-width="5" stroke-miterlimit="10"/>
<path d="M390.536 12.2974L340.163 59.9808" stroke="white" stroke-width="5" stroke-miterlimit="10"/>
<path d="M397.834 12.2974L340.163 66.8907" stroke="white" stroke-width="5" stroke-miterlimit="10"/>
<path d="M405.132 12.2974L342.642 71.454" stroke="white" stroke-width="5" stroke-miterlimit="10"/>
<path d="M385.48 200.529L318.652 263.792" stroke="white" stroke-width="5" stroke-miterlimit="10"/>
<path d="M388.015 205.038L325.95 263.792" stroke="white" stroke-width="5" stroke-miterlimit="10"/>
<path d="M391.497 208.651L333.248 263.792" stroke="white" stroke-width="5" stroke-miterlimit="10"/>
<path d="M394.979 212.264L340.546 263.792" stroke="white" stroke-width="5" stroke-miterlimit="10"/>
<path d="M401.942 219.488L355.143 263.792" stroke="white" stroke-width="5" stroke-miterlimit="10"/>
<path d="M398.461 215.877L347.843 263.792" stroke="white" stroke-width="5" stroke-miterlimit="10"/>
<path d="M405.426 223.101L362.441 263.792" stroke="white" stroke-width="5" stroke-miterlimit="10"/>
<path d="M408.908 226.714L369.739 263.792" stroke="white" stroke-width="5" stroke-miterlimit="10"/>
<path d="M412.389 230.327L377.037 263.792" stroke="white" stroke-width="5" stroke-miterlimit="10"/>
<path d="M415.659 233.717L383.889 263.792" stroke="white" stroke-width="5" stroke-miterlimit="10"/>
<path d="M419.141 237.33L391.186 263.792" stroke="white" stroke-width="5" stroke-miterlimit="10"/>
<path d="M422.606 240.925L398.45 263.792" stroke="white" stroke-width="5" stroke-miterlimit="10"/>
<path d="M426.088 244.538L405.747 263.792" stroke="white" stroke-width="5" stroke-miterlimit="10"/>
<path d="M429.553 248.131L413.009 263.792" stroke="white" stroke-width="5" stroke-miterlimit="10"/>
<path d="M433.034 251.744L420.307 263.792" stroke="white" stroke-width="5" stroke-miterlimit="10"/>
<path d="M436.5 255.338L427.57 263.792" stroke="white" stroke-width="5" stroke-miterlimit="10"/>
<path d="M439.981 258.951L434.868 263.792" stroke="white" stroke-width="5" stroke-miterlimit="10"/>
<path d="M327.094 200.529L313.214 213.669" stroke="white" stroke-width="5" stroke-miterlimit="10"/>
<path d="M319.796 200.529L313.214 206.761" stroke="white" stroke-width="5" stroke-miterlimit="10"/>
<path d="M334.393 200.529L313.214 220.579" stroke="white" stroke-width="5" stroke-miterlimit="10"/>
<path d="M341.691 200.529L313.182 227.518" stroke="white" stroke-width="5" stroke-miterlimit="10"/>
<path d="M356.287 200.529L313.182 241.336" stroke="white" stroke-width="5" stroke-miterlimit="10"/>
<path d="M348.989 200.529L313.182 234.428" stroke="white" stroke-width="5" stroke-miterlimit="10"/>
<path d="M363.585 200.529L313.214 248.213" stroke="white" stroke-width="5" stroke-miterlimit="10"/>
<path d="M370.883 200.529L313.214 255.123" stroke="white" stroke-width="5" stroke-miterlimit="10"/>
<path d="M378.182 200.529L313.214 262.031" stroke="white" stroke-width="5" stroke-miterlimit="10"/>
<path d="M313.567 263.082L313.171 173.649C313.131 170.889 312.007 168.255 310.041 166.317C308.075 164.38 305.426 163.294 302.665 163.294H187.511" stroke="white" stroke-width="10" stroke-miterlimit="10"/>
<path d="M200.374 70.8399C200.902 70.8399 201.33 70.412 201.33 69.8841C201.33 69.3563 200.902 68.9283 200.374 68.9283C199.846 68.9283 199.418 69.3563 199.418 69.8841C199.418 70.412 199.846 70.8399 200.374 70.8399Z" fill="#98C8DB"/>
<path d="M206.398 70.8399C206.926 70.8399 207.354 70.412 207.354 69.8841C207.354 69.3563 206.926 68.9283 206.398 68.9283C205.87 68.9283 205.442 69.3563 205.442 69.8841C205.442 70.412 205.87 70.8399 206.398 70.8399Z" fill="#98C8DB"/>
<path d="M212.422 70.8399C212.95 70.8399 213.378 70.412 213.378 69.8841C213.378 69.3563 212.95 68.9283 212.422 68.9283C211.894 68.9283 211.466 69.3563 211.466 69.8841C211.466 70.412 211.894 70.8399 212.422 70.8399Z" fill="#98C8DB"/>
<path d="M218.444 70.8399C218.972 70.8399 219.4 70.412 219.4 69.8841C219.4 69.3563 218.972 68.9283 218.444 68.9283C217.916 68.9283 217.489 69.3563 217.489 69.8841C217.489 70.412 217.916 70.8399 218.444 70.8399Z" fill="#98C8DB"/>
<path d="M224.468 70.8399C224.996 70.8399 225.424 70.412 225.424 69.8841C225.424 69.3563 224.996 68.9283 224.468 68.9283C223.941 68.9283 223.513 69.3563 223.513 69.8841C223.513 70.412 223.941 70.8399 224.468 70.8399Z" fill="#98C8DB"/>
<path d="M230.491 70.8399C231.019 70.8399 231.446 70.412 231.446 69.8841C231.446 69.3563 231.019 68.9283 230.491 68.9283C229.963 68.9283 229.535 69.3563 229.535 69.8841C229.535 70.412 229.963 70.8399 230.491 70.8399Z" fill="#98C8DB"/>
<path d="M194.352 70.8399C194.88 70.8399 195.308 70.412 195.308 69.8841C195.308 69.3563 194.88 68.9283 194.352 68.9283C193.824 68.9283 193.396 69.3563 193.396 69.8841C193.396 70.412 193.824 70.8399 194.352 70.8399Z" fill="#98C8DB"/>
<path d="M197.364 73.9777C197.892 73.9777 198.32 73.5498 198.32 73.022C198.32 72.4941 197.892 72.0662 197.364 72.0662C196.836 72.0662 196.408 72.4941 196.408 73.022C196.408 73.5498 196.836 73.9777 197.364 73.9777Z" fill="#98C8DB"/>
<path d="M203.386 73.9777C203.914 73.9777 204.342 73.5498 204.342 73.022C204.342 72.4941 203.914 72.0662 203.386 72.0662C202.859 72.0662 202.431 72.4941 202.431 73.022C202.431 73.5498 202.859 73.9777 203.386 73.9777Z" fill="#98C8DB"/>
<path d="M209.41 73.9777C209.938 73.9777 210.366 73.5498 210.366 73.022C210.366 72.4941 209.938 72.0662 209.41 72.0662C208.882 72.0662 208.454 72.4941 208.454 73.022C208.454 73.5498 208.882 73.9777 209.41 73.9777Z" fill="#98C8DB"/>
<path d="M215.432 73.9777C215.96 73.9777 216.388 73.5498 216.388 73.022C216.388 72.4941 215.96 72.0662 215.432 72.0662C214.905 72.0662 214.477 72.4941 214.477 73.022C214.477 73.5498 214.905 73.9777 215.432 73.9777Z" fill="#98C8DB"/>
<path d="M221.456 73.9777C221.984 73.9777 222.412 73.5498 222.412 73.022C222.412 72.4941 221.984 72.0662 221.456 72.0662C220.929 72.0662 220.501 72.4941 220.501 73.022C220.501 73.5498 220.929 73.9777 221.456 73.9777Z" fill="#98C8DB"/>
<path d="M227.481 73.9777C228.008 73.9777 228.436 73.5498 228.436 73.022C228.436 72.4941 228.008 72.0662 227.481 72.0662C226.953 72.0662 226.525 72.4941 226.525 73.022C226.525 73.5498 226.953 73.9777 227.481 73.9777Z" fill="#98C8DB"/>
<path d="M233.503 73.9777C234.031 73.9777 234.458 73.5498 234.458 73.022C234.458 72.4941 234.031 72.0662 233.503 72.0662C232.975 72.0662 232.547 72.4941 232.547 73.022C232.547 73.5498 232.975 73.9777 233.503 73.9777Z" fill="#98C8DB"/>
<path d="M191.34 73.9777C191.868 73.9777 192.296 73.5498 192.296 73.022C192.296 72.4941 191.868 72.0662 191.34 72.0662C190.812 72.0662 190.384 72.4941 190.384 73.022C190.384 73.5498 190.812 73.9777 191.34 73.9777Z" fill="#98C8DB"/>
<path d="M200.374 77.1157C200.902 77.1157 201.33 76.6878 201.33 76.1599C201.33 75.632 200.902 75.2041 200.374 75.2041C199.846 75.2041 199.418 75.632 199.418 76.1599C199.418 76.6878 199.846 77.1157 200.374 77.1157Z" fill="#98C8DB"/>
<path d="M206.398 77.1157C206.926 77.1157 207.354 76.6878 207.354 76.1599C207.354 75.632 206.926 75.2041 206.398 75.2041C205.87 75.2041 205.442 75.632 205.442 76.1599C205.442 76.6878 205.87 77.1157 206.398 77.1157Z" fill="#98C8DB"/>
<path d="M212.422 77.1157C212.95 77.1157 213.378 76.6878 213.378 76.1599C213.378 75.632 212.95 75.2041 212.422 75.2041C211.894 75.2041 211.466 75.632 211.466 76.1599C211.466 76.6878 211.894 77.1157 212.422 77.1157Z" fill="#98C8DB"/>
<path d="M218.444 77.1157C218.972 77.1157 219.4 76.6878 219.4 76.1599C219.4 75.632 218.972 75.2041 218.444 75.2041C217.916 75.2041 217.489 75.632 217.489 76.1599C217.489 76.6878 217.916 77.1157 218.444 77.1157Z" fill="#98C8DB"/>
<path d="M224.468 77.1157C224.996 77.1157 225.424 76.6878 225.424 76.1599C225.424 75.632 224.996 75.2041 224.468 75.2041C223.941 75.2041 223.513 75.632 223.513 76.1599C223.513 76.6878 223.941 77.1157 224.468 77.1157Z" fill="#98C8DB"/>
<path d="M230.491 77.1157C231.019 77.1157 231.446 76.6878 231.446 76.1599C231.446 75.632 231.019 75.2041 230.491 75.2041C229.963 75.2041 229.535 75.632 229.535 76.1599C229.535 76.6878 229.963 77.1157 230.491 77.1157Z" fill="#98C8DB"/>
<path d="M236.515 77.1157C237.042 77.1157 237.47 76.6878 237.47 76.1599C237.47 75.632 237.042 75.2041 236.515 75.2041C235.987 75.2041 235.559 75.632 235.559 76.1599C235.559 76.6878 235.987 77.1157 236.515 77.1157Z" fill="#98C8DB"/>
<path d="M236.515 70.8399C237.042 70.8399 237.47 70.412 237.47 69.8841C237.47 69.3563 237.042 68.9283 236.515 68.9283C235.987 68.9283 235.559 69.3563 235.559 69.8841C235.559 70.412 235.987 70.8399 236.515 70.8399Z" fill="#98C8DB"/>
<path d="M194.352 77.1157C194.88 77.1157 195.308 76.6878 195.308 76.1599C195.308 75.632 194.88 75.2041 194.352 75.2041C193.824 75.2041 193.396 75.632 193.396 76.1599C193.396 76.6878 193.824 77.1157 194.352 77.1157Z" fill="#98C8DB"/>
<path d="M197.364 80.2535C197.892 80.2535 198.32 79.8256 198.32 79.2977C198.32 78.7698 197.892 78.3419 197.364 78.3419C196.836 78.3419 196.408 78.7698 196.408 79.2977C196.408 79.8256 196.836 80.2535 197.364 80.2535Z" fill="#98C8DB"/>
<path d="M203.386 80.2535C203.914 80.2535 204.342 79.8256 204.342 79.2977C204.342 78.7698 203.914 78.3419 203.386 78.3419C202.859 78.3419 202.431 78.7698 202.431 79.2977C202.431 79.8256 202.859 80.2535 203.386 80.2535Z" fill="#98C8DB"/>
<path d="M209.41 80.2535C209.938 80.2535 210.366 79.8256 210.366 79.2977C210.366 78.7698 209.938 78.3419 209.41 78.3419C208.882 78.3419 208.454 78.7698 208.454 79.2977C208.454 79.8256 208.882 80.2535 209.41 80.2535Z" fill="#98C8DB"/>
<path d="M215.432 80.2535C215.96 80.2535 216.388 79.8256 216.388 79.2977C216.388 78.7698 215.96 78.3419 215.432 78.3419C214.905 78.3419 214.477 78.7698 214.477 79.2977C214.477 79.8256 214.905 80.2535 215.432 80.2535Z" fill="#98C8DB"/>
<path d="M221.456 80.2535C221.984 80.2535 222.412 79.8256 222.412 79.2977C222.412 78.7698 221.984 78.3419 221.456 78.3419C220.929 78.3419 220.501 78.7698 220.501 79.2977C220.501 79.8256 220.929 80.2535 221.456 80.2535Z" fill="#98C8DB"/>
<path d="M227.481 80.2535C228.008 80.2535 228.436 79.8256 228.436 79.2977C228.436 78.7698 228.008 78.3419 227.481 78.3419C226.953 78.3419 226.525 78.7698 226.525 79.2977C226.525 79.8256 226.953 80.2535 227.481 80.2535Z" fill="#98C8DB"/>
<path d="M233.503 80.2535C234.031 80.2535 234.458 79.8256 234.458 79.2977C234.458 78.7698 234.031 78.3419 233.503 78.3419C232.975 78.3419 232.547 78.7698 232.547 79.2977C232.547 79.8256 232.975 80.2535 233.503 80.2535Z" fill="#98C8DB"/>
<path d="M191.34 80.2535C191.868 80.2535 192.296 79.8256 192.296 79.2977C192.296 78.7698 191.868 78.3419 191.34 78.3419C190.812 78.3419 190.384 78.7698 190.384 79.2977C190.384 79.8256 190.812 80.2535 191.34 80.2535Z" fill="#98C8DB"/>
<path d="M200.374 83.3913C200.902 83.3913 201.33 82.9634 201.33 82.4355C201.33 81.9077 200.902 81.4797 200.374 81.4797C199.846 81.4797 199.418 81.9077 199.418 82.4355C199.418 82.9634 199.846 83.3913 200.374 83.3913Z" fill="#98C8DB"/>
<path d="M206.398 83.3913C206.926 83.3913 207.354 82.9634 207.354 82.4355C207.354 81.9077 206.926 81.4797 206.398 81.4797C205.87 81.4797 205.442 81.9077 205.442 82.4355C205.442 82.9634 205.87 83.3913 206.398 83.3913Z" fill="#98C8DB"/>
<path d="M212.422 83.3913C212.95 83.3913 213.378 82.9634 213.378 82.4355C213.378 81.9077 212.95 81.4797 212.422 81.4797C211.894 81.4797 211.466 81.9077 211.466 82.4355C211.466 82.9634 211.894 83.3913 212.422 83.3913Z" fill="#98C8DB"/>
<path d="M218.444 83.3913C218.972 83.3913 219.4 82.9634 219.4 82.4355C219.4 81.9077 218.972 81.4797 218.444 81.4797C217.916 81.4797 217.489 81.9077 217.489 82.4355C217.489 82.9634 217.916 83.3913 218.444 83.3913Z" fill="#98C8DB"/>
<path d="M224.468 83.3913C224.996 83.3913 225.424 82.9634 225.424 82.4355C225.424 81.9077 224.996 81.4797 224.468 81.4797C223.941 81.4797 223.513 81.9077 223.513 82.4355C223.513 82.9634 223.941 83.3913 224.468 83.3913Z" fill="#98C8DB"/>
<path d="M230.491 83.3913C231.019 83.3913 231.446 82.9634 231.446 82.4355C231.446 81.9077 231.019 81.4797 230.491 81.4797C229.963 81.4797 229.535 81.9077 229.535 82.4355C229.535 82.9634 229.963 83.3913 230.491 83.3913Z" fill="#98C8DB"/>
<path d="M236.515 83.3913C237.042 83.3913 237.47 82.9634 237.47 82.4355C237.47 81.9077 237.042 81.4797 236.515 81.4797C235.987 81.4797 235.559 81.9077 235.559 82.4355C235.559 82.9634 235.987 83.3913 236.515 83.3913Z" fill="#98C8DB"/>
<path d="M194.352 83.3913C194.88 83.3913 195.308 82.9634 195.308 82.4355C195.308 81.9077 194.88 81.4797 194.352 81.4797C193.824 81.4797 193.396 81.9077 193.396 82.4355C193.396 82.9634 193.824 83.3913 194.352 83.3913Z" fill="#98C8DB"/>
<path d="M197.364 86.5291C197.892 86.5291 198.32 86.1012 198.32 85.5733C198.32 85.0455 197.892 84.6176 197.364 84.6176C196.836 84.6176 196.408 85.0455 196.408 85.5733C196.408 86.1012 196.836 86.5291 197.364 86.5291Z" fill="#98C8DB"/>
<path d="M203.386 86.5291C203.914 86.5291 204.342 86.1012 204.342 85.5733C204.342 85.0455 203.914 84.6176 203.386 84.6176C202.859 84.6176 202.431 85.0455 202.431 85.5733C202.431 86.1012 202.859 86.5291 203.386 86.5291Z" fill="#98C8DB"/>
<path d="M209.41 86.5291C209.938 86.5291 210.366 86.1012 210.366 85.5733C210.366 85.0455 209.938 84.6176 209.41 84.6176C208.882 84.6176 208.454 85.0455 208.454 85.5733C208.454 86.1012 208.882 86.5291 209.41 86.5291Z" fill="#98C8DB"/>
<path d="M215.432 86.5291C215.96 86.5291 216.388 86.1012 216.388 85.5733C216.388 85.0455 215.96 84.6176 215.432 84.6176C214.905 84.6176 214.477 85.0455 214.477 85.5733C214.477 86.1012 214.905 86.5291 215.432 86.5291Z" fill="#98C8DB"/>
<path d="M221.456 86.5291C221.984 86.5291 222.412 86.1012 222.412 85.5733C222.412 85.0455 221.984 84.6176 221.456 84.6176C220.929 84.6176 220.501 85.0455 220.501 85.5733C220.501 86.1012 220.929 86.5291 221.456 86.5291Z" fill="#98C8DB"/>
<path d="M227.481 86.5291C228.008 86.5291 228.436 86.1012 228.436 85.5733C228.436 85.0455 228.008 84.6176 227.481 84.6176C226.953 84.6176 226.525 85.0455 226.525 85.5733C226.525 86.1012 226.953 86.5291 227.481 86.5291Z" fill="#98C8DB"/>
<path d="M233.503 86.5291C234.031 86.5291 234.458 86.1012 234.458 85.5733C234.458 85.0455 234.031 84.6176 233.503 84.6176C232.975 84.6176 232.547 85.0455 232.547 85.5733C232.547 86.1012 232.975 86.5291 233.503 86.5291Z" fill="#98C8DB"/>
<path d="M191.34 86.5291C191.868 86.5291 192.296 86.1012 192.296 85.5733C192.296 85.0455 191.868 84.6176 191.34 84.6176C190.812 84.6176 190.384 85.0455 190.384 85.5733C190.384 86.1012 190.812 86.5291 191.34 86.5291Z" fill="#98C8DB"/>
<path d="M200.374 89.6669C200.902 89.6669 201.33 89.239 201.33 88.7112C201.33 88.1833 200.902 87.7554 200.374 87.7554C199.846 87.7554 199.418 88.1833 199.418 88.7112C199.418 89.239 199.846 89.6669 200.374 89.6669Z" fill="#98C8DB"/>
<path d="M206.398 89.6669C206.926 89.6669 207.354 89.239 207.354 88.7112C207.354 88.1833 206.926 87.7554 206.398 87.7554C205.87 87.7554 205.442 88.1833 205.442 88.7112C205.442 89.239 205.87 89.6669 206.398 89.6669Z" fill="#98C8DB"/>
<path d="M212.422 89.6669C212.95 89.6669 213.378 89.239 213.378 88.7112C213.378 88.1833 212.95 87.7554 212.422 87.7554C211.894 87.7554 211.466 88.1833 211.466 88.7112C211.466 89.239 211.894 89.6669 212.422 89.6669Z" fill="#98C8DB"/>
<path d="M218.444 89.6669C218.972 89.6669 219.4 89.239 219.4 88.7112C219.4 88.1833 218.972 87.7554 218.444 87.7554C217.916 87.7554 217.489 88.1833 217.489 88.7112C217.489 89.239 217.916 89.6669 218.444 89.6669Z" fill="#98C8DB"/>
<path d="M224.468 89.6669C224.996 89.6669 225.424 89.239 225.424 88.7112C225.424 88.1833 224.996 87.7554 224.468 87.7554C223.941 87.7554 223.513 88.1833 223.513 88.7112C223.513 89.239 223.941 89.6669 224.468 89.6669Z" fill="#98C8DB"/>
<path d="M230.491 89.6669C231.019 89.6669 231.446 89.239 231.446 88.7112C231.446 88.1833 231.019 87.7554 230.491 87.7554C229.963 87.7554 229.535 88.1833 229.535 88.7112C229.535 89.239 229.963 89.6669 230.491 89.6669Z" fill="#98C8DB"/>
<path d="M236.515 89.6669C237.042 89.6669 237.47 89.239 237.47 88.7112C237.47 88.1833 237.042 87.7554 236.515 87.7554C235.987 87.7554 235.559 88.1833 235.559 88.7112C235.559 89.239 235.987 89.6669 236.515 89.6669Z" fill="#98C8DB"/>
<path d="M194.352 89.6669C194.88 89.6669 195.308 89.239 195.308 88.7112C195.308 88.1833 194.88 87.7554 194.352 87.7554C193.824 87.7554 193.396 88.1833 193.396 88.7112C193.396 89.239 193.824 89.6669 194.352 89.6669Z" fill="#98C8DB"/>
<path d="M197.364 92.8048C197.892 92.8048 198.32 92.3768 198.32 91.849C198.32 91.3211 197.892 90.8932 197.364 90.8932C196.836 90.8932 196.408 91.3211 196.408 91.849C196.408 92.3768 196.836 92.8048 197.364 92.8048Z" fill="#98C8DB"/>
<path d="M203.386 92.8048C203.914 92.8048 204.342 92.3768 204.342 91.849C204.342 91.3211 203.914 90.8932 203.386 90.8932C202.859 90.8932 202.431 91.3211 202.431 91.849C202.431 92.3768 202.859 92.8048 203.386 92.8048Z" fill="#98C8DB"/>
<path d="M209.41 92.8048C209.938 92.8048 210.366 92.3768 210.366 91.849C210.366 91.3211 209.938 90.8932 209.41 90.8932C208.882 90.8932 208.454 91.3211 208.454 91.849C208.454 92.3768 208.882 92.8048 209.41 92.8048Z" fill="#98C8DB"/>
<path d="M215.432 92.8048C215.96 92.8048 216.388 92.3768 216.388 91.849C216.388 91.3211 215.96 90.8932 215.432 90.8932C214.905 90.8932 214.477 91.3211 214.477 91.849C214.477 92.3768 214.905 92.8048 215.432 92.8048Z" fill="#98C8DB"/>
<path d="M221.456 92.8048C221.984 92.8048 222.412 92.3768 222.412 91.849C222.412 91.3211 221.984 90.8932 221.456 90.8932C220.929 90.8932 220.501 91.3211 220.501 91.849C220.501 92.3768 220.929 92.8048 221.456 92.8048Z" fill="#98C8DB"/>
<path d="M227.481 92.8048C228.008 92.8048 228.436 92.3768 228.436 91.849C228.436 91.3211 228.008 90.8932 227.481 90.8932C226.953 90.8932 226.525 91.3211 226.525 91.849C226.525 92.3768 226.953 92.8048 227.481 92.8048Z" fill="#98C8DB"/>
<path d="M233.503 92.8048C234.031 92.8048 234.458 92.3768 234.458 91.849C234.458 91.3211 234.031 90.8932 233.503 90.8932C232.975 90.8932 232.547 91.3211 232.547 91.849C232.547 92.3768 232.975 92.8048 233.503 92.8048Z" fill="#98C8DB"/>
<path d="M191.34 92.8048C191.868 92.8048 192.296 92.3768 192.296 91.849C192.296 91.3211 191.868 90.8932 191.34 90.8932C190.812 90.8932 190.384 91.3211 190.384 91.849C190.384 92.3768 190.812 92.8048 191.34 92.8048Z" fill="#98C8DB"/>
<path d="M200.374 95.9444C200.902 95.9444 201.33 95.5165 201.33 94.9886C201.33 94.4608 200.902 94.0328 200.374 94.0328C199.846 94.0328 199.418 94.4608 199.418 94.9886C199.418 95.5165 199.846 95.9444 200.374 95.9444Z" fill="#98C8DB"/>
<path d="M206.398 95.9444C206.926 95.9444 207.354 95.5165 207.354 94.9886C207.354 94.4608 206.926 94.0328 206.398 94.0328C205.87 94.0328 205.442 94.4608 205.442 94.9886C205.442 95.5165 205.87 95.9444 206.398 95.9444Z" fill="#98C8DB"/>
<path d="M212.422 95.9444C212.95 95.9444 213.378 95.5165 213.378 94.9886C213.378 94.4608 212.95 94.0328 212.422 94.0328C211.894 94.0328 211.466 94.4608 211.466 94.9886C211.466 95.5165 211.894 95.9444 212.422 95.9444Z" fill="#98C8DB"/>
<path d="M218.444 95.9444C218.972 95.9444 219.4 95.5165 219.4 94.9886C219.4 94.4608 218.972 94.0328 218.444 94.0328C217.916 94.0328 217.489 94.4608 217.489 94.9886C217.489 95.5165 217.916 95.9444 218.444 95.9444Z" fill="#98C8DB"/>
<path d="M224.468 95.9444C224.996 95.9444 225.424 95.5165 225.424 94.9886C225.424 94.4608 224.996 94.0328 224.468 94.0328C223.941 94.0328 223.513 94.4608 223.513 94.9886C223.513 95.5165 223.941 95.9444 224.468 95.9444Z" fill="#98C8DB"/>
<path d="M230.491 95.9444C231.019 95.9444 231.446 95.5165 231.446 94.9886C231.446 94.4608 231.019 94.0328 230.491 94.0328C229.963 94.0328 229.535 94.4608 229.535 94.9886C229.535 95.5165 229.963 95.9444 230.491 95.9444Z" fill="#98C8DB"/>
<path d="M236.515 95.9444C237.042 95.9444 237.47 95.5165 237.47 94.9886C237.47 94.4608 237.042 94.0328 236.515 94.0328C235.987 94.0328 235.559 94.4608 235.559 94.9886C235.559 95.5165 235.987 95.9444 236.515 95.9444Z" fill="#98C8DB"/>
<path d="M194.352 95.9444C194.88 95.9444 195.308 95.5165 195.308 94.9886C195.308 94.4608 194.88 94.0328 194.352 94.0328C193.824 94.0328 193.396 94.4608 193.396 94.9886C193.396 95.5165 193.824 95.9444 194.352 95.9444Z" fill="#98C8DB"/>
<path d="M197.364 99.0823C197.892 99.0823 198.32 98.6544 198.32 98.1266C198.32 97.5987 197.892 97.1708 197.364 97.1708C196.836 97.1708 196.408 97.5987 196.408 98.1266C196.408 98.6544 196.836 99.0823 197.364 99.0823Z" fill="#98C8DB"/>
<path d="M203.386 99.0823C203.914 99.0823 204.342 98.6544 204.342 98.1266C204.342 97.5987 203.914 97.1708 203.386 97.1708C202.859 97.1708 202.431 97.5987 202.431 98.1266C202.431 98.6544 202.859 99.0823 203.386 99.0823Z" fill="#98C8DB"/>
<path d="M209.41 99.0823C209.938 99.0823 210.366 98.6544 210.366 98.1266C210.366 97.5987 209.938 97.1708 209.41 97.1708C208.882 97.1708 208.454 97.5987 208.454 98.1266C208.454 98.6544 208.882 99.0823 209.41 99.0823Z" fill="#98C8DB"/>
<path d="M215.432 99.0823C215.96 99.0823 216.388 98.6544 216.388 98.1266C216.388 97.5987 215.96 97.1708 215.432 97.1708C214.905 97.1708 214.477 97.5987 214.477 98.1266C214.477 98.6544 214.905 99.0823 215.432 99.0823Z" fill="#98C8DB"/>
<path d="M221.456 99.0823C221.984 99.0823 222.412 98.6544 222.412 98.1266C222.412 97.5987 221.984 97.1708 221.456 97.1708C220.929 97.1708 220.501 97.5987 220.501 98.1266C220.501 98.6544 220.929 99.0823 221.456 99.0823Z" fill="#98C8DB"/>
<path d="M227.481 99.0823C228.008 99.0823 228.436 98.6544 228.436 98.1266C228.436 97.5987 228.008 97.1708 227.481 97.1708C226.953 97.1708 226.525 97.5987 226.525 98.1266C226.525 98.6544 226.953 99.0823 227.481 99.0823Z" fill="#98C8DB"/>
<path d="M233.503 99.0823C234.031 99.0823 234.458 98.6544 234.458 98.1266C234.458 97.5987 234.031 97.1708 233.503 97.1708C232.975 97.1708 232.547 97.5987 232.547 98.1266C232.547 98.6544 232.975 99.0823 233.503 99.0823Z" fill="#98C8DB"/>
<path d="M239.654 73.9777C240.182 73.9777 240.61 73.5498 240.61 73.022C240.61 72.4941 240.182 72.0662 239.654 72.0662C239.127 72.0662 238.699 72.4941 238.699 73.022C238.699 73.5498 239.127 73.9777 239.654 73.9777Z" fill="#98C8DB"/>
<path d="M239.654 80.2535C240.182 80.2535 240.61 79.8256 240.61 79.2977C240.61 78.7698 240.182 78.3419 239.654 78.3419C239.127 78.3419 238.699 78.7698 238.699 79.2977C238.699 79.8256 239.127 80.2535 239.654 80.2535Z" fill="#98C8DB"/>
<path d="M197.364 61.2638C197.892 61.2638 198.32 60.8358 198.32 60.308C198.32 59.7801 197.892 59.3522 197.364 59.3522C196.836 59.3522 196.408 59.7801 196.408 60.308C196.408 60.8358 196.836 61.2638 197.364 61.2638Z" fill="#98C8DB"/>
<path d="M203.386 61.2638C203.914 61.2638 204.342 60.8358 204.342 60.308C204.342 59.7801 203.914 59.3522 203.386 59.3522C202.859 59.3522 202.431 59.7801 202.431 60.308C202.431 60.8358 202.859 61.2638 203.386 61.2638Z" fill="#98C8DB"/>
<path d="M209.41 61.2638C209.938 61.2638 210.366 60.8358 210.366 60.308C210.366 59.7801 209.938 59.3522 209.41 59.3522C208.882 59.3522 208.454 59.7801 208.454 60.308C208.454 60.8358 208.882 61.2638 209.41 61.2638Z" fill="#98C8DB"/>
<path d="M215.432 61.2638C215.96 61.2638 216.388 60.8358 216.388 60.308C216.388 59.7801 215.96 59.3522 215.432 59.3522C214.905 59.3522 214.477 59.7801 214.477 60.308C214.477 60.8358 214.905 61.2638 215.432 61.2638Z" fill="#98C8DB"/>
<path d="M221.456 61.2638C221.984 61.2638 222.412 60.8358 222.412 60.308C222.412 59.7801 221.984 59.3522 221.456 59.3522C220.929 59.3522 220.501 59.7801 220.501 60.308C220.501 60.8358 220.929 61.2638 221.456 61.2638Z" fill="#98C8DB"/>
<path d="M227.481 61.2638C228.008 61.2638 228.436 60.8358 228.436 60.308C228.436 59.7801 228.008 59.3522 227.481 59.3522C226.953 59.3522 226.525 59.7801 226.525 60.308C226.525 60.8358 226.953 61.2638 227.481 61.2638Z" fill="#98C8DB"/>
<path d="M233.503 61.2638C234.031 61.2638 234.458 60.8358 234.458 60.308C234.458 59.7801 234.031 59.3522 233.503 59.3522C232.975 59.3522 232.547 59.7801 232.547 60.308C232.547 60.8358 232.975 61.2638 233.503 61.2638Z" fill="#98C8DB"/>
<path d="M191.34 61.2638C191.868 61.2638 192.296 60.8358 192.296 60.308C192.296 59.7801 191.868 59.3522 191.34 59.3522C190.812 59.3522 190.384 59.7801 190.384 60.308C190.384 60.8358 190.812 61.2638 191.34 61.2638Z" fill="#98C8DB"/>
<path d="M200.374 64.4016C200.902 64.4016 201.33 63.9736 201.33 63.4458C201.33 62.9179 200.902 62.49 200.374 62.49C199.846 62.49 199.418 62.9179 199.418 63.4458C199.418 63.9736 199.846 64.4016 200.374 64.4016Z" fill="#98C8DB"/>
<path d="M206.398 64.4016C206.926 64.4016 207.354 63.9736 207.354 63.4458C207.354 62.9179 206.926 62.49 206.398 62.49C205.87 62.49 205.442 62.9179 205.442 63.4458C205.442 63.9736 205.87 64.4016 206.398 64.4016Z" fill="#98C8DB"/>
<path d="M212.422 64.4016C212.95 64.4016 213.378 63.9736 213.378 63.4458C213.378 62.9179 212.95 62.49 212.422 62.49C211.894 62.49 211.466 62.9179 211.466 63.4458C211.466 63.9736 211.894 64.4016 212.422 64.4016Z" fill="#98C8DB"/>
<path d="M218.444 64.4016C218.972 64.4016 219.4 63.9736 219.4 63.4458C219.4 62.9179 218.972 62.49 218.444 62.49C217.916 62.49 217.489 62.9179 217.489 63.4458C217.489 63.9736 217.916 64.4016 218.444 64.4016Z" fill="#98C8DB"/>
<path d="M224.468 64.4016C224.996 64.4016 225.424 63.9736 225.424 63.4458C225.424 62.9179 224.996 62.49 224.468 62.49C223.941 62.49 223.513 62.9179 223.513 63.4458C223.513 63.9736 223.941 64.4016 224.468 64.4016Z" fill="#98C8DB"/>
<path d="M230.491 64.4016C231.019 64.4016 231.446 63.9736 231.446 63.4458C231.446 62.9179 231.019 62.49 230.491 62.49C229.963 62.49 229.535 62.9179 229.535 63.4458C229.535 63.9736 229.963 64.4016 230.491 64.4016Z" fill="#98C8DB"/>
<path d="M236.515 64.4016C237.042 64.4016 237.47 63.9736 237.47 63.4458C237.47 62.9179 237.042 62.49 236.515 62.49C235.987 62.49 235.559 62.9179 235.559 63.4458C235.559 63.9736 235.987 64.4016 236.515 64.4016Z" fill="#98C8DB"/>
<path d="M194.352 64.4016C194.88 64.4016 195.308 63.9736 195.308 63.4458C195.308 62.9179 194.88 62.49 194.352 62.49C193.824 62.49 193.396 62.9179 193.396 63.4458C193.396 63.9736 193.824 64.4016 194.352 64.4016Z" fill="#98C8DB"/>
<path d="M197.364 67.5394C197.892 67.5394 198.32 67.1115 198.32 66.5836C198.32 66.0557 197.892 65.6278 197.364 65.6278C196.836 65.6278 196.408 66.0557 196.408 66.5836C196.408 67.1115 196.836 67.5394 197.364 67.5394Z" fill="#98C8DB"/>
<path d="M203.386 67.5394C203.914 67.5394 204.342 67.1115 204.342 66.5836C204.342 66.0557 203.914 65.6278 203.386 65.6278C202.859 65.6278 202.431 66.0557 202.431 66.5836C202.431 67.1115 202.859 67.5394 203.386 67.5394Z" fill="#98C8DB"/>
<path d="M209.41 67.5394C209.938 67.5394 210.366 67.1115 210.366 66.5836C210.366 66.0557 209.938 65.6278 209.41 65.6278C208.882 65.6278 208.454 66.0557 208.454 66.5836C208.454 67.1115 208.882 67.5394 209.41 67.5394Z" fill="#98C8DB"/>
<path d="M215.432 67.5394C215.96 67.5394 216.388 67.1115 216.388 66.5836C216.388 66.0557 215.96 65.6278 215.432 65.6278C214.905 65.6278 214.477 66.0557 214.477 66.5836C214.477 67.1115 214.905 67.5394 215.432 67.5394Z" fill="#98C8DB"/>
<path d="M221.456 67.5394C221.984 67.5394 222.412 67.1115 222.412 66.5836C222.412 66.0557 221.984 65.6278 221.456 65.6278C220.929 65.6278 220.501 66.0557 220.501 66.5836C220.501 67.1115 220.929 67.5394 221.456 67.5394Z" fill="#98C8DB"/>
<path d="M227.481 67.5394C228.008 67.5394 228.436 67.1115 228.436 66.5836C228.436 66.0557 228.008 65.6278 227.481 65.6278C226.953 65.6278 226.525 66.0557 226.525 66.5836C226.525 67.1115 226.953 67.5394 227.481 67.5394Z" fill="#98C8DB"/>
<path d="M233.503 67.5394C234.031 67.5394 234.458 67.1115 234.458 66.5836C234.458 66.0557 234.031 65.6278 233.503 65.6278C232.975 65.6278 232.547 66.0557 232.547 66.5836C232.547 67.1115 232.975 67.5394 233.503 67.5394Z" fill="#98C8DB"/>
<path d="M191.34 67.5394C191.868 67.5394 192.296 67.1115 192.296 66.5836C192.296 66.0557 191.868 65.6278 191.34 65.6278C190.812 65.6278 190.384 66.0557 190.384 66.5836C190.384 67.1115 190.812 67.5394 191.34 67.5394Z" fill="#98C8DB"/>
<path d="M239.654 61.2638C240.182 61.2638 240.61 60.8358 240.61 60.308C240.61 59.7801 240.182 59.3522 239.654 59.3522C239.127 59.3522 238.699 59.7801 238.699 60.308C238.699 60.8358 239.127 61.2638 239.654 61.2638Z" fill="#98C8DB"/>
<path d="M239.654 67.5394C240.182 67.5394 240.61 67.1115 240.61 66.5836C240.61 66.0557 240.182 65.6278 239.654 65.6278C239.127 65.6278 238.699 66.0557 238.699 66.5836C238.699 67.1115 239.127 67.5394 239.654 67.5394Z" fill="#98C8DB"/>
<path d="M239.654 86.5291C240.182 86.5291 240.61 86.1012 240.61 85.5733C240.61 85.0455 240.182 84.6176 239.654 84.6176C239.127 84.6176 238.699 85.0455 238.699 85.5733C238.699 86.1012 239.127 86.5291 239.654 86.5291Z" fill="#98C8DB"/>
<path d="M239.654 92.8048C240.182 92.8048 240.61 92.3768 240.61 91.849C240.61 91.3211 240.182 90.8932 239.654 90.8932C239.127 90.8932 238.699 91.3211 238.699 91.849C238.699 92.3768 239.127 92.8048 239.654 92.8048Z" fill="#98C8DB"/>
<path d="M239.654 99.0823C240.182 99.0823 240.61 98.6544 240.61 98.1266C240.61 97.5987 240.182 97.1708 239.654 97.1708C239.127 97.1708 238.699 97.5987 238.699 98.1266C238.699 98.6544 239.127 99.0823 239.654 99.0823Z" fill="#98C8DB"/>
<path d="M191.34 99.0823C191.868 99.0823 192.296 98.6544 192.296 98.1266C192.296 97.5987 191.868 97.1708 191.34 97.1708C190.812 97.1708 190.384 97.5987 190.384 98.1266C190.384 98.6544 190.812 99.0823 191.34 99.0823Z" fill="#98C8DB"/>
<path d="M200.374 102.22C200.902 102.22 201.33 101.792 201.33 101.264C201.33 100.737 200.902 100.309 200.374 100.309C199.846 100.309 199.418 100.737 199.418 101.264C199.418 101.792 199.846 102.22 200.374 102.22Z" fill="#98C8DB"/>
<path d="M206.398 102.22C206.926 102.22 207.354 101.792 207.354 101.264C207.354 100.737 206.926 100.309 206.398 100.309C205.87 100.309 205.442 100.737 205.442 101.264C205.442 101.792 205.87 102.22 206.398 102.22Z" fill="#98C8DB"/>
<path d="M212.422 102.22C212.95 102.22 213.378 101.792 213.378 101.264C213.378 100.737 212.95 100.309 212.422 100.309C211.894 100.309 211.466 100.737 211.466 101.264C211.466 101.792 211.894 102.22 212.422 102.22Z" fill="#98C8DB"/>
<path d="M218.444 102.22C218.972 102.22 219.4 101.792 219.4 101.264C219.4 100.737 218.972 100.309 218.444 100.309C217.916 100.309 217.489 100.737 217.489 101.264C217.489 101.792 217.916 102.22 218.444 102.22Z" fill="#98C8DB"/>
<path d="M224.468 102.22C224.996 102.22 225.424 101.792 225.424 101.264C225.424 100.737 224.996 100.309 224.468 100.309C223.941 100.309 223.513 100.737 223.513 101.264C223.513 101.792 223.941 102.22 224.468 102.22Z" fill="#98C8DB"/>
<path d="M230.491 102.22C231.019 102.22 231.446 101.792 231.446 101.264C231.446 100.737 231.019 100.309 230.491 100.309C229.963 100.309 229.535 100.737 229.535 101.264C229.535 101.792 229.963 102.22 230.491 102.22Z" fill="#98C8DB"/>
<path d="M236.515 102.22C237.042 102.22 237.47 101.792 237.47 101.264C237.47 100.737 237.042 100.309 236.515 100.309C235.987 100.309 235.559 100.737 235.559 101.264C235.559 101.792 235.987 102.22 236.515 102.22Z" fill="#98C8DB"/>
<path d="M194.352 102.22C194.88 102.22 195.308 101.792 195.308 101.264C195.308 100.737 194.88 100.309 194.352 100.309C193.824 100.309 193.396 100.737 193.396 101.264C193.396 101.792 193.824 102.22 194.352 102.22Z" fill="#98C8DB"/>
<path d="M197.364 105.499C197.892 105.499 198.32 105.071 198.32 104.543C198.32 104.015 197.892 103.587 197.364 103.587C196.836 103.587 196.408 104.015 196.408 104.543C196.408 105.071 196.836 105.499 197.364 105.499Z" fill="#98C8DB"/>
<path d="M203.386 105.499C203.914 105.499 204.342 105.071 204.342 104.543C204.342 104.015 203.914 103.587 203.386 103.587C202.859 103.587 202.431 104.015 202.431 104.543C202.431 105.071 202.859 105.499 203.386 105.499Z" fill="#98C8DB"/>
<path d="M209.41 105.499C209.938 105.499 210.366 105.071 210.366 104.543C210.366 104.015 209.938 103.587 209.41 103.587C208.882 103.587 208.454 104.015 208.454 104.543C208.454 105.071 208.882 105.499 209.41 105.499Z" fill="#98C8DB"/>
<path d="M215.432 105.499C215.96 105.499 216.388 105.071 216.388 104.543C216.388 104.015 215.96 103.587 215.432 103.587C214.905 103.587 214.477 104.015 214.477 104.543C214.477 105.071 214.905 105.499 215.432 105.499Z" fill="#98C8DB"/>
<path d="M221.456 105.499C221.984 105.499 222.412 105.071 222.412 104.543C222.412 104.015 221.984 103.587 221.456 103.587C220.929 103.587 220.501 104.015 220.501 104.543C220.501 105.071 220.929 105.499 221.456 105.499Z" fill="#98C8DB"/>
<path d="M227.481 105.499C228.008 105.499 228.436 105.071 228.436 104.543C228.436 104.015 228.008 103.587 227.481 103.587C226.953 103.587 226.525 104.015 226.525 104.543C226.525 105.071 226.953 105.499 227.481 105.499Z" fill="#98C8DB"/>
<path d="M233.503 105.499C234.031 105.499 234.458 105.071 234.458 104.543C234.458 104.015 234.031 103.587 233.503 103.587C232.975 103.587 232.547 104.015 232.547 104.543C232.547 105.071 232.975 105.499 233.503 105.499Z" fill="#98C8DB"/>
<path d="M191.34 105.499C191.868 105.499 192.296 105.071 192.296 104.543C192.296 104.015 191.868 103.587 191.34 103.587C190.812 103.587 190.384 104.015 190.384 104.543C190.384 105.071 190.812 105.499 191.34 105.499Z" fill="#98C8DB"/>
<path d="M200.374 108.62C200.902 108.62 201.33 108.192 201.33 107.664C201.33 107.136 200.902 106.708 200.374 106.708C199.846 106.708 199.418 107.136 199.418 107.664C199.418 108.192 199.846 108.62 200.374 108.62Z" fill="#98C8DB"/>
<path d="M206.398 108.62C206.926 108.62 207.354 108.192 207.354 107.664C207.354 107.136 206.926 106.708 206.398 106.708C205.87 106.708 205.442 107.136 205.442 107.664C205.442 108.192 205.87 108.62 206.398 108.62Z" fill="#98C8DB"/>
<path d="M212.422 108.62C212.95 108.62 213.378 108.192 213.378 107.664C213.378 107.136 212.95 106.708 212.422 106.708C211.894 106.708 211.466 107.136 211.466 107.664C211.466 108.192 211.894 108.62 212.422 108.62Z" fill="#98C8DB"/>
<path d="M218.444 108.62C218.972 108.62 219.4 108.192 219.4 107.664C219.4 107.136 218.972 106.708 218.444 106.708C217.916 106.708 217.489 107.136 217.489 107.664C217.489 108.192 217.916 108.62 218.444 108.62Z" fill="#98C8DB"/>
<path d="M224.468 108.62C224.996 108.62 225.424 108.192 225.424 107.664C225.424 107.136 224.996 106.708 224.468 106.708C223.941 106.708 223.513 107.136 223.513 107.664C223.513 108.192 223.941 108.62 224.468 108.62Z" fill="#98C8DB"/>
<path d="M230.491 108.62C231.019 108.62 231.446 108.192 231.446 107.664C231.446 107.136 231.019 106.708 230.491 106.708C229.963 106.708 229.535 107.136 229.535 107.664C229.535 108.192 229.963 108.62 230.491 108.62Z" fill="#98C8DB"/>
<path d="M194.352 108.62C194.88 108.62 195.308 108.192 195.308 107.664C195.308 107.136 194.88 106.708 194.352 106.708C193.824 106.708 193.396 107.136 193.396 107.664C193.396 108.192 193.824 108.62 194.352 108.62Z" fill="#98C8DB"/>
<path d="M428.304 149.65C428.832 149.65 429.26 149.222 429.26 148.694C429.26 148.166 428.832 147.738 428.304 147.738C427.776 147.738 427.349 148.166 427.349 148.694C427.349 149.222 427.776 149.65 428.304 149.65Z" fill="#98C8DB"/>
<path d="M434.328 149.65C434.856 149.65 435.284 149.222 435.284 148.694C435.284 148.166 434.856 147.738 434.328 147.738C433.8 147.738 433.372 148.166 433.372 148.694C433.372 149.222 433.8 149.65 434.328 149.65Z" fill="#98C8DB"/>
<path d="M440.351 149.65C440.879 149.65 441.307 149.222 441.307 148.694C441.307 148.166 440.879 147.738 440.351 147.738C439.823 147.738 439.395 148.166 439.395 148.694C439.395 149.222 439.823 149.65 440.351 149.65Z" fill="#98C8DB"/>
<path d="M446.375 149.65C446.902 149.65 447.33 149.222 447.33 148.694C447.33 148.166 446.902 147.738 446.375 147.738C445.847 147.738 445.419 148.166 445.419 148.694C445.419 149.222 445.847 149.65 446.375 149.65Z" fill="#98C8DB"/>
<path d="M452.397 149.65C452.925 149.65 453.353 149.222 453.353 148.694C453.353 148.166 452.925 147.738 452.397 147.738C451.869 147.738 451.441 148.166 451.441 148.694C451.441 149.222 451.869 149.65 452.397 149.65Z" fill="#98C8DB"/>
<path d="M458.421 149.65C458.949 149.65 459.377 149.222 459.377 148.694C459.377 148.166 458.949 147.738 458.421 147.738C457.893 147.738 457.465 148.166 457.465 148.694C457.465 149.222 457.893 149.65 458.421 149.65Z" fill="#98C8DB"/>
<path d="M422.28 149.65C422.808 149.65 423.236 149.222 423.236 148.694C423.236 148.166 422.808 147.738 422.28 147.738C421.752 147.738 421.324 148.166 421.324 148.694C421.324 149.222 421.752 149.65 422.28 149.65Z" fill="#98C8DB"/>
<path d="M425.292 152.787C425.82 152.787 426.248 152.36 426.248 151.832C426.248 151.304 425.82 150.876 425.292 150.876C424.764 150.876 424.337 151.304 424.337 151.832C424.337 152.36 424.764 152.787 425.292 152.787Z" fill="#98C8DB"/>
<path d="M431.316 152.787C431.844 152.787 432.272 152.36 432.272 151.832C432.272 151.304 431.844 150.876 431.316 150.876C430.788 150.876 430.36 151.304 430.36 151.832C430.36 152.36 430.788 152.787 431.316 152.787Z" fill="#98C8DB"/>
<path d="M437.339 152.787C437.867 152.787 438.295 152.36 438.295 151.832C438.295 151.304 437.867 150.876 437.339 150.876C436.811 150.876 436.383 151.304 436.383 151.832C436.383 152.36 436.811 152.787 437.339 152.787Z" fill="#98C8DB"/>
<path d="M443.363 152.787C443.891 152.787 444.318 152.36 444.318 151.832C444.318 151.304 443.891 150.876 443.363 150.876C442.835 150.876 442.407 151.304 442.407 151.832C442.407 152.36 442.835 152.787 443.363 152.787Z" fill="#98C8DB"/>
<path d="M449.387 152.787C449.914 152.787 450.342 152.36 450.342 151.832C450.342 151.304 449.914 150.876 449.387 150.876C448.859 150.876 448.431 151.304 448.431 151.832C448.431 152.36 448.859 152.787 449.387 152.787Z" fill="#98C8DB"/>
<path d="M455.409 152.787C455.937 152.787 456.365 152.36 456.365 151.832C456.365 151.304 455.937 150.876 455.409 150.876C454.881 150.876 454.453 151.304 454.453 151.832C454.453 152.36 454.881 152.787 455.409 152.787Z" fill="#98C8DB"/>
<path d="M461.433 152.787C461.961 152.787 462.389 152.36 462.389 151.832C462.389 151.304 461.961 150.876 461.433 150.876C460.905 150.876 460.477 151.304 460.477 151.832C460.477 152.36 460.905 152.787 461.433 152.787Z" fill="#98C8DB"/>
<path d="M419.27 152.787C419.798 152.787 420.226 152.36 420.226 151.832C420.226 151.304 419.798 150.876 419.27 150.876C418.742 150.876 418.314 151.304 418.314 151.832C418.314 152.36 418.742 152.787 419.27 152.787Z" fill="#98C8DB"/>
<path d="M428.304 155.925C428.832 155.925 429.26 155.497 429.26 154.969C429.26 154.442 428.832 154.014 428.304 154.014C427.776 154.014 427.349 154.442 427.349 154.969C427.349 155.497 427.776 155.925 428.304 155.925Z" fill="#98C8DB"/>
<path d="M434.328 155.925C434.856 155.925 435.284 155.497 435.284 154.969C435.284 154.442 434.856 154.014 434.328 154.014C433.8 154.014 433.372 154.442 433.372 154.969C433.372 155.497 433.8 155.925 434.328 155.925Z" fill="#98C8DB"/>
<path d="M440.351 155.925C440.879 155.925 441.307 155.497 441.307 154.969C441.307 154.442 440.879 154.014 440.351 154.014C439.823 154.014 439.395 154.442 439.395 154.969C439.395 155.497 439.823 155.925 440.351 155.925Z" fill="#98C8DB"/>
<path d="M446.375 155.925C446.902 155.925 447.33 155.497 447.33 154.969C447.33 154.442 446.902 154.014 446.375 154.014C445.847 154.014 445.419 154.442 445.419 154.969C445.419 155.497 445.847 155.925 446.375 155.925Z" fill="#98C8DB"/>
<path d="M452.397 155.925C452.925 155.925 453.353 155.497 453.353 154.969C453.353 154.442 452.925 154.014 452.397 154.014C451.869 154.014 451.441 154.442 451.441 154.969C451.441 155.497 451.869 155.925 452.397 155.925Z" fill="#98C8DB"/>
<path d="M458.421 155.925C458.949 155.925 459.377 155.497 459.377 154.969C459.377 154.442 458.949 154.014 458.421 154.014C457.893 154.014 457.465 154.442 457.465 154.969C457.465 155.497 457.893 155.925 458.421 155.925Z" fill="#98C8DB"/>
<path d="M464.445 155.925C464.973 155.925 465.401 155.497 465.401 154.969C465.401 154.442 464.973 154.014 464.445 154.014C463.917 154.014 463.489 154.442 463.489 154.969C463.489 155.497 463.917 155.925 464.445 155.925Z" fill="#98C8DB"/>
<path d="M464.445 149.65C464.973 149.65 465.401 149.222 465.401 148.694C465.401 148.166 464.973 147.738 464.445 147.738C463.917 147.738 463.489 148.166 463.489 148.694C463.489 149.222 463.917 149.65 464.445 149.65Z" fill="#98C8DB"/>
<path d="M422.28 155.925C422.808 155.925 423.236 155.497 423.236 154.969C423.236 154.442 422.808 154.014 422.28 154.014C421.752 154.014 421.324 154.442 421.324 154.969C421.324 155.497 421.752 155.925 422.28 155.925Z" fill="#98C8DB"/>
<path d="M425.292 159.063C425.82 159.063 426.248 158.635 426.248 158.107C426.248 157.58 425.82 157.152 425.292 157.152C424.764 157.152 424.337 157.58 424.337 158.107C424.337 158.635 424.764 159.063 425.292 159.063Z" fill="#98C8DB"/>
<path d="M431.316 159.063C431.844 159.063 432.272 158.635 432.272 158.107C432.272 157.58 431.844 157.152 431.316 157.152C430.788 157.152 430.36 157.58 430.36 158.107C430.36 158.635 430.788 159.063 431.316 159.063Z" fill="#98C8DB"/>
<path d="M437.339 159.063C437.867 159.063 438.295 158.635 438.295 158.107C438.295 157.58 437.867 157.152 437.339 157.152C436.811 157.152 436.383 157.58 436.383 158.107C436.383 158.635 436.811 159.063 437.339 159.063Z" fill="#98C8DB"/>
<path d="M443.363 159.063C443.891 159.063 444.318 158.635 444.318 158.107C444.318 157.58 443.891 157.152 443.363 157.152C442.835 157.152 442.407 157.58 442.407 158.107C442.407 158.635 442.835 159.063 443.363 159.063Z" fill="#98C8DB"/>
<path d="M449.387 159.063C449.914 159.063 450.342 158.635 450.342 158.107C450.342 157.58 449.914 157.152 449.387 157.152C448.859 157.152 448.431 157.58 448.431 158.107C448.431 158.635 448.859 159.063 449.387 159.063Z" fill="#98C8DB"/>
<path d="M455.409 159.063C455.937 159.063 456.365 158.635 456.365 158.107C456.365 157.58 455.937 157.152 455.409 157.152C454.881 157.152 454.453 157.58 454.453 158.107C454.453 158.635 454.881 159.063 455.409 159.063Z" fill="#98C8DB"/>
<path d="M461.433 159.063C461.961 159.063 462.389 158.635 462.389 158.107C462.389 157.58 461.961 157.152 461.433 157.152C460.905 157.152 460.477 157.58 460.477 158.107C460.477 158.635 460.905 159.063 461.433 159.063Z" fill="#98C8DB"/>
<path d="M419.27 159.063C419.798 159.063 420.226 158.635 420.226 158.107C420.226 157.58 419.798 157.152 419.27 157.152C418.742 157.152 418.314 157.58 418.314 158.107C418.314 158.635 418.742 159.063 419.27 159.063Z" fill="#98C8DB"/>
<path d="M467.585 152.787C468.113 152.787 468.541 152.36 468.541 151.832C468.541 151.304 468.113 150.876 467.585 150.876C467.057 150.876 466.629 151.304 466.629 151.832C466.629 152.36 467.057 152.787 467.585 152.787Z" fill="#98C8DB"/>
<path d="M467.585 159.063C468.113 159.063 468.541 158.635 468.541 158.107C468.541 157.58 468.113 157.152 467.585 157.152C467.057 157.152 466.629 157.58 466.629 158.107C466.629 158.635 467.057 159.063 467.585 159.063Z" fill="#98C8DB"/>
<path d="M425.292 140.073C425.82 140.073 426.248 139.646 426.248 139.118C426.248 138.59 425.82 138.162 425.292 138.162C424.764 138.162 424.337 138.59 424.337 139.118C424.337 139.646 424.764 140.073 425.292 140.073Z" fill="#98C8DB"/>
<path d="M431.316 140.073C431.844 140.073 432.272 139.646 432.272 139.118C432.272 138.59 431.844 138.162 431.316 138.162C430.788 138.162 430.36 138.59 430.36 139.118C430.36 139.646 430.788 140.073 431.316 140.073Z" fill="#98C8DB"/>
<path d="M437.339 140.073C437.867 140.073 438.295 139.646 438.295 139.118C438.295 138.59 437.867 138.162 437.339 138.162C436.811 138.162 436.383 138.59 436.383 139.118C436.383 139.646 436.811 140.073 437.339 140.073Z" fill="#98C8DB"/>
<path d="M443.363 140.073C443.891 140.073 444.318 139.646 444.318 139.118C444.318 138.59 443.891 138.162 443.363 138.162C442.835 138.162 442.407 138.59 442.407 139.118C442.407 139.646 442.835 140.073 443.363 140.073Z" fill="#98C8DB"/>
<path d="M449.387 140.073C449.914 140.073 450.342 139.646 450.342 139.118C450.342 138.59 449.914 138.162 449.387 138.162C448.859 138.162 448.431 138.59 448.431 139.118C448.431 139.646 448.859 140.073 449.387 140.073Z" fill="#98C8DB"/>
<path d="M455.409 140.073C455.937 140.073 456.365 139.646 456.365 139.118C456.365 138.59 455.937 138.162 455.409 138.162C454.881 138.162 454.453 138.59 454.453 139.118C454.453 139.646 454.881 140.073 455.409 140.073Z" fill="#98C8DB"/>
<path d="M461.433 140.073C461.961 140.073 462.389 139.646 462.389 139.118C462.389 138.59 461.961 138.162 461.433 138.162C460.905 138.162 460.477 138.59 460.477 139.118C460.477 139.646 460.905 140.073 461.433 140.073Z" fill="#98C8DB"/>
<path d="M419.27 140.073C419.798 140.073 420.226 139.646 420.226 139.118C420.226 138.59 419.798 138.162 419.27 138.162C418.742 138.162 418.314 138.59 418.314 139.118C418.314 139.646 418.742 140.073 419.27 140.073Z" fill="#98C8DB"/>
<path d="M428.304 143.211C428.832 143.211 429.26 142.783 429.26 142.255C429.26 141.728 428.832 141.3 428.304 141.3C427.776 141.3 427.349 141.728 427.349 142.255C427.349 142.783 427.776 143.211 428.304 143.211Z" fill="#98C8DB"/>
<path d="M434.328 143.211C434.856 143.211 435.284 142.783 435.284 142.255C435.284 141.728 434.856 141.3 434.328 141.3C433.8 141.3 433.372 141.728 433.372 142.255C433.372 142.783 433.8 143.211 434.328 143.211Z" fill="#98C8DB"/>
<path d="M440.351 143.211C440.879 143.211 441.307 142.783 441.307 142.255C441.307 141.728 440.879 141.3 440.351 141.3C439.823 141.3 439.395 141.728 439.395 142.255C439.395 142.783 439.823 143.211 440.351 143.211Z" fill="#98C8DB"/>
<path d="M446.375 143.211C446.902 143.211 447.33 142.783 447.33 142.255C447.33 141.728 446.902 141.3 446.375 141.3C445.847 141.3 445.419 141.728 445.419 142.255C445.419 142.783 445.847 143.211 446.375 143.211Z" fill="#98C8DB"/>
<path d="M452.397 143.211C452.925 143.211 453.353 142.783 453.353 142.255C453.353 141.728 452.925 141.3 452.397 141.3C451.869 141.3 451.441 141.728 451.441 142.255C451.441 142.783 451.869 143.211 452.397 143.211Z" fill="#98C8DB"/>
<path d="M458.421 143.211C458.949 143.211 459.377 142.783 459.377 142.255C459.377 141.728 458.949 141.3 458.421 141.3C457.893 141.3 457.465 141.728 457.465 142.255C457.465 142.783 457.893 143.211 458.421 143.211Z" fill="#98C8DB"/>
<path d="M464.445 143.211C464.973 143.211 465.401 142.783 465.401 142.255C465.401 141.728 464.973 141.3 464.445 141.3C463.917 141.3 463.489 141.728 463.489 142.255C463.489 142.783 463.917 143.211 464.445 143.211Z" fill="#98C8DB"/>
<path d="M422.28 143.211C422.808 143.211 423.236 142.783 423.236 142.255C423.236 141.728 422.808 141.3 422.28 141.3C421.752 141.3 421.324 141.728 421.324 142.255C421.324 142.783 421.752 143.211 422.28 143.211Z" fill="#98C8DB"/>
<path d="M425.292 146.349C425.82 146.349 426.248 145.921 426.248 145.393C426.248 144.865 425.82 144.438 425.292 144.438C424.764 144.438 424.337 144.865 424.337 145.393C424.337 145.921 424.764 146.349 425.292 146.349Z" fill="#98C8DB"/>
<path d="M431.316 146.349C431.844 146.349 432.272 145.921 432.272 145.393C432.272 144.865 431.844 144.438 431.316 144.438C430.788 144.438 430.36 144.865 430.36 145.393C430.36 145.921 430.788 146.349 431.316 146.349Z" fill="#98C8DB"/>
<path d="M437.339 146.349C437.867 146.349 438.295 145.921 438.295 145.393C438.295 144.865 437.867 144.438 437.339 144.438C436.811 144.438 436.383 144.865 436.383 145.393C436.383 145.921 436.811 146.349 437.339 146.349Z" fill="#98C8DB"/>
<path d="M443.363 146.349C443.891 146.349 444.318 145.921 444.318 145.393C444.318 144.865 443.891 144.438 443.363 144.438C442.835 144.438 442.407 144.865 442.407 145.393C442.407 145.921 442.835 146.349 443.363 146.349Z" fill="#98C8DB"/>
<path d="M449.387 146.349C449.914 146.349 450.342 145.921 450.342 145.393C450.342 144.865 449.914 144.438 449.387 144.438C448.859 144.438 448.431 144.865 448.431 145.393C448.431 145.921 448.859 146.349 449.387 146.349Z" fill="#98C8DB"/>
<path d="M455.409 146.349C455.937 146.349 456.365 145.921 456.365 145.393C456.365 144.865 455.937 144.438 455.409 144.438C454.881 144.438 454.453 144.865 454.453 145.393C454.453 145.921 454.881 146.349 455.409 146.349Z" fill="#98C8DB"/>
<path d="M461.433 146.349C461.961 146.349 462.389 145.921 462.389 145.393C462.389 144.865 461.961 144.438 461.433 144.438C460.905 144.438 460.477 144.865 460.477 145.393C460.477 145.921 460.905 146.349 461.433 146.349Z" fill="#98C8DB"/>
<path d="M419.27 146.349C419.798 146.349 420.226 145.921 420.226 145.393C420.226 144.865 419.798 144.438 419.27 144.438C418.742 144.438 418.314 144.865 418.314 145.393C418.314 145.921 418.742 146.349 419.27 146.349Z" fill="#98C8DB"/>
<path d="M467.585 140.073C468.113 140.073 468.541 139.646 468.541 139.118C468.541 138.59 468.113 138.162 467.585 138.162C467.057 138.162 466.629 138.59 466.629 139.118C466.629 139.646 467.057 140.073 467.585 140.073Z" fill="#98C8DB"/>
<path d="M467.585 146.349C468.113 146.349 468.541 145.921 468.541 145.393C468.541 144.865 468.113 144.438 467.585 144.438C467.057 144.438 466.629 144.865 466.629 145.393C466.629 145.921 467.057 146.349 467.585 146.349Z" fill="#98C8DB"/>
<path d="M476.701 149.65C477.229 149.65 477.657 149.222 477.657 148.694C477.657 148.166 477.229 147.738 476.701 147.738C476.173 147.738 475.745 148.166 475.745 148.694C475.745 149.222 476.173 149.65 476.701 149.65Z" fill="#98C8DB"/>
<path d="M482.725 149.65C483.253 149.65 483.681 149.222 483.681 148.694C483.681 148.166 483.253 147.738 482.725 147.738C482.197 147.738 481.769 148.166 481.769 148.694C481.769 149.222 482.197 149.65 482.725 149.65Z" fill="#98C8DB"/>
<path d="M488.747 149.65C489.275 149.65 489.703 149.222 489.703 148.694C489.703 148.166 489.275 147.738 488.747 147.738C488.219 147.738 487.791 148.166 487.791 148.694C487.791 149.222 488.219 149.65 488.747 149.65Z" fill="#98C8DB"/>
<path d="M494.771 149.65C495.299 149.65 495.727 149.222 495.727 148.694C495.727 148.166 495.299 147.738 494.771 147.738C494.243 147.738 493.815 148.166 493.815 148.694C493.815 149.222 494.243 149.65 494.771 149.65Z" fill="#98C8DB"/>
<path d="M500.795 149.65C501.323 149.65 501.751 149.222 501.751 148.694C501.751 148.166 501.323 147.738 500.795 147.738C500.267 147.738 499.839 148.166 499.839 148.694C499.839 149.222 500.267 149.65 500.795 149.65Z" fill="#98C8DB"/>
<path d="M470.679 149.65C471.207 149.65 471.635 149.222 471.635 148.694C471.635 148.166 471.207 147.738 470.679 147.738C470.151 147.738 469.723 148.166 469.723 148.694C469.723 149.222 470.151 149.65 470.679 149.65Z" fill="#98C8DB"/>
<path d="M473.689 152.787C474.217 152.787 474.645 152.36 474.645 151.832C474.645 151.304 474.217 150.876 473.689 150.876C473.161 150.876 472.733 151.304 472.733 151.832C472.733 152.36 473.161 152.787 473.689 152.787Z" fill="#98C8DB"/>
<path d="M479.713 152.787C480.241 152.787 480.669 152.36 480.669 151.832C480.669 151.304 480.241 150.876 479.713 150.876C479.185 150.876 478.757 151.304 478.757 151.832C478.757 152.36 479.185 152.787 479.713 152.787Z" fill="#98C8DB"/>
<path d="M485.737 152.787C486.265 152.787 486.693 152.36 486.693 151.832C486.693 151.304 486.265 150.876 485.737 150.876C485.209 150.876 484.781 151.304 484.781 151.832C484.781 152.36 485.209 152.787 485.737 152.787Z" fill="#98C8DB"/>
<path d="M491.759 152.787C492.287 152.787 492.715 152.36 492.715 151.832C492.715 151.304 492.287 150.876 491.759 150.876C491.231 150.876 490.803 151.304 490.803 151.832C490.803 152.36 491.231 152.787 491.759 152.787Z" fill="#98C8DB"/>
<path d="M497.783 152.787C498.311 152.787 498.739 152.36 498.739 151.832C498.739 151.304 498.311 150.876 497.783 150.876C497.255 150.876 496.828 151.304 496.828 151.832C496.828 152.36 497.255 152.787 497.783 152.787Z" fill="#98C8DB"/>
<path d="M503.805 152.787C504.333 152.787 504.761 152.36 504.761 151.832C504.761 151.304 504.333 150.876 503.805 150.876C503.277 150.876 502.849 151.304 502.849 151.832C502.849 152.36 503.277 152.787 503.805 152.787Z" fill="#98C8DB"/>
<path d="M476.701 155.925C477.229 155.925 477.657 155.497 477.657 154.969C477.657 154.442 477.229 154.014 476.701 154.014C476.173 154.014 475.745 154.442 475.745 154.969C475.745 155.497 476.173 155.925 476.701 155.925Z" fill="#98C8DB"/>
<path d="M482.725 155.925C483.253 155.925 483.681 155.497 483.681 154.969C483.681 154.442 483.253 154.014 482.725 154.014C482.197 154.014 481.769 154.442 481.769 154.969C481.769 155.497 482.197 155.925 482.725 155.925Z" fill="#98C8DB"/>
<path d="M488.747 155.925C489.275 155.925 489.703 155.497 489.703 154.969C489.703 154.442 489.275 154.014 488.747 154.014C488.219 154.014 487.791 154.442 487.791 154.969C487.791 155.497 488.219 155.925 488.747 155.925Z" fill="#98C8DB"/>
<path d="M494.771 155.925C495.299 155.925 495.727 155.497 495.727 154.969C495.727 154.442 495.299 154.014 494.771 154.014C494.243 154.014 493.815 154.442 493.815 154.969C493.815 155.497 494.243 155.925 494.771 155.925Z" fill="#98C8DB"/>
<path d="M500.795 155.925C501.323 155.925 501.751 155.497 501.751 154.969C501.751 154.442 501.323 154.014 500.795 154.014C500.267 154.014 499.839 154.442 499.839 154.969C499.839 155.497 500.267 155.925 500.795 155.925Z" fill="#98C8DB"/>
<path d="M470.679 155.925C471.207 155.925 471.635 155.497 471.635 154.969C471.635 154.442 471.207 154.014 470.679 154.014C470.151 154.014 469.723 154.442 469.723 154.969C469.723 155.497 470.151 155.925 470.679 155.925Z" fill="#98C8DB"/>
<path d="M473.689 159.063C474.217 159.063 474.645 158.635 474.645 158.107C474.645 157.58 474.217 157.152 473.689 157.152C473.161 157.152 472.733 157.58 472.733 158.107C472.733 158.635 473.161 159.063 473.689 159.063Z" fill="#98C8DB"/>
<path d="M479.713 159.063C480.241 159.063 480.669 158.635 480.669 158.107C480.669 157.58 480.241 157.152 479.713 157.152C479.185 157.152 478.757 157.58 478.757 158.107C478.757 158.635 479.185 159.063 479.713 159.063Z" fill="#98C8DB"/>
<path d="M485.737 159.063C486.265 159.063 486.693 158.635 486.693 158.107C486.693 157.58 486.265 157.152 485.737 157.152C485.209 157.152 484.781 157.58 484.781 158.107C484.781 158.635 485.209 159.063 485.737 159.063Z" fill="#98C8DB"/>
<path d="M491.759 159.063C492.287 159.063 492.715 158.635 492.715 158.107C492.715 157.58 492.287 157.152 491.759 157.152C491.231 157.152 490.803 157.58 490.803 158.107C490.803 158.635 491.231 159.063 491.759 159.063Z" fill="#98C8DB"/>
<path d="M497.783 159.063C498.311 159.063 498.739 158.635 498.739 158.107C498.739 157.58 498.311 157.152 497.783 157.152C497.255 157.152 496.828 157.58 496.828 158.107C496.828 158.635 497.255 159.063 497.783 159.063Z" fill="#98C8DB"/>
<path d="M503.805 159.063C504.333 159.063 504.761 158.635 504.761 158.107C504.761 157.58 504.333 157.152 503.805 157.152C503.277 157.152 502.849 157.58 502.849 158.107C502.849 158.635 503.277 159.063 503.805 159.063Z" fill="#98C8DB"/>
<path d="M473.689 140.073C474.217 140.073 474.645 139.646 474.645 139.118C474.645 138.59 474.217 138.162 473.689 138.162C473.161 138.162 472.733 138.59 472.733 139.118C472.733 139.646 473.161 140.073 473.689 140.073Z" fill="#98C8DB"/>
<path d="M479.713 140.073C480.241 140.073 480.669 139.646 480.669 139.118C480.669 138.59 480.241 138.162 479.713 138.162C479.185 138.162 478.757 138.59 478.757 139.118C478.757 139.646 479.185 140.073 479.713 140.073Z" fill="#98C8DB"/>
<path d="M485.737 140.073C486.265 140.073 486.693 139.646 486.693 139.118C486.693 138.59 486.265 138.162 485.737 138.162C485.209 138.162 484.781 138.59 484.781 139.118C484.781 139.646 485.209 140.073 485.737 140.073Z" fill="#98C8DB"/>
<path d="M491.759 140.073C492.287 140.073 492.715 139.646 492.715 139.118C492.715 138.59 492.287 138.162 491.759 138.162C491.231 138.162 490.803 138.59 490.803 139.118C490.803 139.646 491.231 140.073 491.759 140.073Z" fill="#98C8DB"/>
<path d="M497.783 140.073C498.311 140.073 498.739 139.646 498.739 139.118C498.739 138.59 498.311 138.162 497.783 138.162C497.255 138.162 496.828 138.59 496.828 139.118C496.828 139.646 497.255 140.073 497.783 140.073Z" fill="#98C8DB"/>
<path d="M503.805 140.073C504.333 140.073 504.761 139.646 504.761 139.118C504.761 138.59 504.333 138.162 503.805 138.162C503.277 138.162 502.849 138.59 502.849 139.118C502.849 139.646 503.277 140.073 503.805 140.073Z" fill="#98C8DB"/>
<path d="M476.701 143.211C477.229 143.211 477.657 142.783 477.657 142.255C477.657 141.728 477.229 141.3 476.701 141.3C476.173 141.3 475.745 141.728 475.745 142.255C475.745 142.783 476.173 143.211 476.701 143.211Z" fill="#98C8DB"/>
<path d="M482.725 143.211C483.253 143.211 483.681 142.783 483.681 142.255C483.681 141.728 483.253 141.3 482.725 141.3C482.197 141.3 481.769 141.728 481.769 142.255C481.769 142.783 482.197 143.211 482.725 143.211Z" fill="#98C8DB"/>
<path d="M488.747 143.211C489.275 143.211 489.703 142.783 489.703 142.255C489.703 141.728 489.275 141.3 488.747 141.3C488.219 141.3 487.791 141.728 487.791 142.255C487.791 142.783 488.219 143.211 488.747 143.211Z" fill="#98C8DB"/>
<path d="M494.771 143.211C495.299 143.211 495.727 142.783 495.727 142.255C495.727 141.728 495.299 141.3 494.771 141.3C494.243 141.3 493.815 141.728 493.815 142.255C493.815 142.783 494.243 143.211 494.771 143.211Z" fill="#98C8DB"/>
<path d="M500.795 143.211C501.323 143.211 501.751 142.783 501.751 142.255C501.751 141.728 501.323 141.3 500.795 141.3C500.267 141.3 499.839 141.728 499.839 142.255C499.839 142.783 500.267 143.211 500.795 143.211Z" fill="#98C8DB"/>
<path d="M470.679 143.211C471.207 143.211 471.635 142.783 471.635 142.255C471.635 141.728 471.207 141.3 470.679 141.3C470.151 141.3 469.723 141.728 469.723 142.255C469.723 142.783 470.151 143.211 470.679 143.211Z" fill="#98C8DB"/>
<path d="M473.689 146.349C474.217 146.349 474.645 145.921 474.645 145.393C474.645 144.865 474.217 144.438 473.689 144.438C473.161 144.438 472.733 144.865 472.733 145.393C472.733 145.921 473.161 146.349 473.689 146.349Z" fill="#98C8DB"/>
<path d="M479.713 146.349C480.241 146.349 480.669 145.921 480.669 145.393C480.669 144.865 480.241 144.438 479.713 144.438C479.185 144.438 478.757 144.865 478.757 145.393C478.757 145.921 479.185 146.349 479.713 146.349Z" fill="#98C8DB"/>
<path d="M485.737 146.349C486.265 146.349 486.693 145.921 486.693 145.393C486.693 144.865 486.265 144.438 485.737 144.438C485.209 144.438 484.781 144.865 484.781 145.393C484.781 145.921 485.209 146.349 485.737 146.349Z" fill="#98C8DB"/>
<path d="M491.759 146.349C492.287 146.349 492.715 145.921 492.715 145.393C492.715 144.865 492.287 144.438 491.759 144.438C491.231 144.438 490.803 144.865 490.803 145.393C490.803 145.921 491.231 146.349 491.759 146.349Z" fill="#98C8DB"/>
<path d="M497.783 146.349C498.311 146.349 498.739 145.921 498.739 145.393C498.739 144.865 498.311 144.438 497.783 144.438C497.255 144.438 496.828 144.865 496.828 145.393C496.828 145.921 497.255 146.349 497.783 146.349Z" fill="#98C8DB"/>
<path d="M503.805 146.349C504.333 146.349 504.761 145.921 504.761 145.393C504.761 144.865 504.333 144.438 503.805 144.438C503.277 144.438 502.849 144.865 502.849 145.393C502.849 145.921 503.277 146.349 503.805 146.349Z" fill="#98C8DB"/>
<path d="M466.536 194.533C466.536 199.022 474.665 213.722 474.665 213.722C474.665 213.722 482.795 199.016 482.795 194.533C482.795 192.376 481.938 190.308 480.413 188.783C478.887 187.258 476.819 186.401 474.662 186.401C472.505 186.401 470.436 187.258 468.911 188.783C467.385 190.308 466.528 192.376 466.528 194.533H466.536ZM472.163 194.656C472.162 194.161 472.309 193.677 472.583 193.265C472.858 192.853 473.248 192.532 473.705 192.342C474.162 192.152 474.666 192.102 475.151 192.198C475.637 192.294 476.083 192.532 476.433 192.882C476.783 193.231 477.022 193.677 477.119 194.163C477.216 194.648 477.166 195.151 476.977 195.609C476.788 196.066 476.467 196.457 476.056 196.732C475.644 197.007 475.16 197.154 474.665 197.154C474.002 197.154 473.366 196.891 472.897 196.422C472.428 195.954 472.164 195.319 472.163 194.656Z" fill="#FFC200"/>
<path d="M482.683 250.068H508.832V235.672H482.683V250.068Z" fill="#BDDCE8"/>
<path d="M468.515 222.45H494.664L508.832 235.671H482.683L468.515 222.45Z" fill="#98C8DB"/>
<path d="M454.331 235.671L468.499 222.45L482.683 235.671V250.066L496.851 263.286H454.331V235.671Z" fill="white"/>
<path d="M482.683 250.066H508.832L523 263.286H496.851L482.683 250.066Z" fill="#98C8DB"/>
<path d="M468.82 236.65H471.185V234.285H468.82V236.65Z" fill="#F3B304"/>
<path d="M465.328 236.65H467.693V234.285H465.328V236.65Z" fill="#F3B304"/>
<path d="M468.82 240.015H471.185V237.65H468.82V240.015Z" fill="#F3B304"/>
<path d="M465.328 240.015H467.693V237.65H465.328V240.015Z" fill="#F3B304"/>
<path d="M468.82 249.914H471.185V247.549H468.82V249.914Z" fill="#98C8DB"/>
<path d="M465.328 249.914H467.693V247.549H465.328V249.914Z" fill="#98C8DB"/>
<path d="M468.82 253.277H471.185V250.912H468.82V253.277Z" fill="#98C8DB"/>
<path d="M465.328 253.277H467.693V250.912H465.328V253.277Z" fill="#98C8DB"/>
<path d="M246.848 31.6215L226.788 38.1384V52.5026H205.742V38.1384L225.803 31.6215H246.848Z" fill="#98C8DB"/>
<path d="M226.788 52.5044V38.1384L246.675 31.6215L266.735 38.1384V52.5044H226.788Z" fill="white"/>
<path d="M233.161 39.9969H260.51C260.594 39.9969 260.676 40.0134 260.754 40.0454C260.831 40.0773 260.901 40.1242 260.96 40.1832C261.019 40.2423 261.066 40.3124 261.098 40.3895C261.13 40.4667 261.146 40.5494 261.146 40.6329V52.5117H232.525V40.6329C232.525 40.5494 232.541 40.4667 232.573 40.3895C232.605 40.3124 232.652 40.2423 232.711 40.1832C232.77 40.1242 232.84 40.0773 232.918 40.0454C232.995 40.0134 233.077 39.9969 233.161 39.9969Z" fill="#98C8DB"/>
<path d="M232.525 42.3197H261.148" stroke="white" stroke-width="3" stroke-miterlimit="10"/>
<path d="M232.525 45.0043H261.148" stroke="white" stroke-width="3" stroke-miterlimit="10"/>
<path d="M232.525 47.6908H261.148" stroke="white" stroke-width="3" stroke-miterlimit="10"/>
<path d="M232.525 50.3772H261.148" stroke="white" stroke-width="3" stroke-miterlimit="10"/>
<path d="M246.49 3.54825e-06C244.494 0.00242462 242.581 0.796704 241.171 2.20842C239.76 3.62013 238.968 5.53386 238.967 7.52936C238.967 11.6869 246.499 25.3092 246.499 25.3092C246.499 25.3092 254.029 11.6869 254.029 7.52936C254.029 6.53989 253.834 5.56016 253.455 4.64617C253.076 3.73218 252.52 2.90184 251.82 2.2026C251.12 1.50337 250.289 0.94894 249.374 0.571007C248.46 0.193074 247.48 -0.000956899 246.49 3.54825e-06ZM246.49 9.95812C246.032 9.95848 245.583 9.82284 245.202 9.56835C244.82 9.31386 244.523 8.95197 244.348 8.52847C244.172 8.10496 244.126 7.63888 244.215 7.1892C244.305 6.73952 244.525 6.32646 244.85 6.00227C245.174 5.67808 245.587 5.45734 246.037 5.36799C246.486 5.27863 246.952 5.32468 247.376 5.50029C247.799 5.67591 248.161 5.9732 248.416 6.35456C248.67 6.73592 248.806 7.18419 248.806 7.64266C248.806 7.9468 248.746 8.248 248.63 8.52903C248.514 8.81007 248.343 9.06542 248.128 9.28048C247.913 9.49553 247.658 9.66608 247.376 9.78236C247.095 9.89863 246.794 9.95836 246.49 9.95812Z" fill="#FFC200"/>
<path d="M193.429 44.52H187.679V52.5026H193.429V44.52Z" fill="#A74602"/>
<path d="M205.346 44.52H193.429V52.5026H205.346V44.52Z" fill="#F3B304"/>
<path d="M208.846 44.52H205.346V52.5026H208.846V44.52Z" fill="#A74602"/>
<path d="M220.68 44.52H208.846V52.5026H220.68V44.52Z" fill="#F3B304"/>
<path d="M203.443 38.2426H198.32V44.5201H203.443V38.2426Z" fill="#A74602"/>
<path d="M213.943 38.2426H203.441V44.5201H213.943V38.2426Z" fill="#F3B304"/>
<path opacity="0.5" d="M390.633 161.978C397.547 161.978 403.152 156.373 403.152 149.46C403.152 142.546 397.547 136.941 390.633 136.941C383.718 136.941 378.113 142.546 378.113 149.46C378.113 156.373 383.718 161.978 390.633 161.978Z" fill="white"/>
<path d="M390.633 161.978C397.547 161.978 403.152 156.373 403.152 149.46C403.152 142.546 397.547 136.941 390.633 136.941C383.718 136.941 378.113 142.546 378.113 149.46C378.113 156.373 383.718 161.978 390.633 161.978Z" stroke="#F3B304" stroke-width="5" stroke-miterlimit="10"/>
<path d="M245.381 54.5549V64.3376C245.381 67.4228 246.606 70.3817 248.788 72.5634C250.969 74.7451 253.928 75.9711 257.014 75.9716H334.92V75.9807C334.92 77.3695 335.471 78.7014 336.453 79.6836C337.435 80.6658 338.767 81.2179 340.156 81.2184V81.2184V116.442C340.156 117.794 340.511 119.123 341.184 120.296C341.858 121.469 342.826 122.445 343.994 123.127L390.298 150.154" stroke="#F3B304" stroke-width="5" stroke-linejoin="round"/>
<path d="M382.331 154.037H396.96L390.152 140.298V149.586L382.331 154.037Z" fill="#F3B304"/>
<path d="M338.687 341.997H408.419L424.799 338.91H355.066L338.687 341.997Z" fill="#CEE4ED"/>
<path d="M227.369 341.997H297.102L313.481 338.91H243.75L227.369 341.997Z" fill="#CEE4ED"/>
<path d="M116.053 341.997H185.784L202.166 338.91H132.433L116.053 341.997Z" fill="#CEE4ED"/>
<path d="M4.73547 341.997H74.4664L90.8478 338.91H21.115L4.73547 341.997Z" fill="#CEE4ED"/>
<path d="M369.181 338.399C380.443 338.399 389.573 329.27 389.573 318.009C389.573 306.748 380.443 297.62 369.181 297.62C357.92 297.62 348.79 306.748 348.79 318.009C348.79 329.27 357.92 338.399 369.181 338.399Z" fill="#59221D"/>
<path d="M404.212 256.411L369.993 230.568L334.668 147.678C332.675 143.002 329.351 139.015 325.11 136.212C320.869 133.41 315.898 131.916 310.815 131.915H55.8553C51.4509 131.916 47.2271 133.666 44.1129 136.78C40.9987 139.894 39.2491 144.118 39.2491 148.522V308.76H410.074V268.189C410.075 265.906 409.547 263.654 408.53 261.61C407.512 259.566 406.034 257.786 404.212 256.411Z" fill="#FFC200" stroke="#592D29" stroke-width="5" stroke-miterlimit="10"/>
<path d="M410.072 268.18V308.751H308.492V268.18C308.492 265.898 307.963 263.648 306.946 261.605C305.929 259.563 304.451 257.784 302.63 256.409L268.413 230.566L233.086 147.679C231.093 143.003 227.77 139.016 223.529 136.213C219.288 133.41 214.317 131.916 209.233 131.915H310.815C315.898 131.916 320.87 133.41 325.111 136.213C329.352 139.016 332.675 143.003 334.668 147.679L369.993 230.566L404.212 256.409C406.033 257.784 407.51 259.563 408.527 261.605C409.543 263.648 410.072 265.899 410.072 268.18Z" fill="white" stroke="#592D29" stroke-width="5" stroke-miterlimit="10"/>
<path d="M32.41 308.76H415.886C416.835 308.76 417.745 309.137 418.416 309.808C419.087 310.479 419.464 311.389 419.464 312.338V318.004H28.8314V312.338C28.8314 311.868 28.924 311.403 29.1038 310.969C29.2837 310.535 29.5473 310.14 29.8796 309.808C30.2119 309.476 30.6064 309.212 31.0405 309.032C31.4747 308.853 31.94 308.76 32.41 308.76Z" fill="white" stroke="#592D29" stroke-width="5" stroke-miterlimit="10"/>
<path d="M382.675 283.857H339.204C338.297 283.857 337.561 284.592 337.561 285.5V295.748C337.561 296.656 338.297 297.391 339.204 297.391H382.675C383.582 297.391 384.318 296.656 384.318 295.748V285.5C384.318 284.592 383.582 283.857 382.675 283.857Z" fill="#98C8DB"/>
<path d="M384.901 282.237H341.43C340.523 282.237 339.787 282.973 339.787 283.88V294.129C339.787 295.036 340.523 295.772 341.43 295.772H384.901C385.809 295.772 386.544 295.036 386.544 294.129V283.88C386.544 282.973 385.809 282.237 384.901 282.237Z" stroke="#592D29" stroke-width="5" stroke-miterlimit="10"/>
<path d="M371.316 285.62C371.793 285.62 372.179 285.234 372.179 284.758C372.179 284.281 371.793 283.895 371.316 283.895C370.84 283.895 370.453 284.281 370.453 284.758C370.453 285.234 370.84 285.62 371.316 285.62Z" fill="#59221D"/>
<path d="M376.75 285.62C377.226 285.62 377.612 285.234 377.612 284.758C377.612 284.281 377.226 283.895 376.75 283.895C376.273 283.895 375.887 284.281 375.887 284.758C375.887 285.234 376.273 285.62 376.75 285.62Z" fill="#59221D"/>
<path d="M382.183 285.62C382.66 285.62 383.046 285.234 383.046 284.758C383.046 284.281 382.66 283.895 382.183 283.895C381.707 283.895 381.321 284.281 381.321 284.758C381.321 285.234 381.707 285.62 382.183 285.62Z" fill="#59221D"/>
<path d="M344.148 285.62C344.624 285.62 345.01 285.234 345.01 284.758C345.01 284.281 344.624 283.895 344.148 283.895C343.671 283.895 343.285 284.281 343.285 284.758C343.285 285.234 343.671 285.62 344.148 285.62Z" fill="#59221D"/>
<path d="M349.581 285.62C350.058 285.62 350.444 285.234 350.444 284.758C350.444 284.281 350.058 283.895 349.581 283.895C349.105 283.895 348.719 284.281 348.719 284.758C348.719 285.234 349.105 285.62 349.581 285.62Z" fill="#59221D"/>
<path d="M355.015 285.62C355.491 285.62 355.878 285.234 355.878 284.758C355.878 284.281 355.491 283.895 355.015 283.895C354.539 283.895 354.152 284.281 354.152 284.758C354.152 285.234 354.539 285.62 355.015 285.62Z" fill="#59221D"/>
<path d="M360.449 285.62C360.925 285.62 361.311 285.234 361.311 284.758C361.311 284.281 360.925 283.895 360.449 283.895C359.972 283.895 359.586 284.281 359.586 284.758C359.586 285.234 359.972 285.62 360.449 285.62Z" fill="#59221D"/>
<path d="M365.882 285.62C366.359 285.62 366.745 285.234 366.745 284.758C366.745 284.281 366.359 283.895 365.882 283.895C365.406 283.895 365.02 284.281 365.02 284.758C365.02 285.234 365.406 285.62 365.882 285.62Z" fill="#59221D"/>
<path d="M368.598 288.451C369.075 288.451 369.461 288.065 369.461 287.588C369.461 287.112 369.075 286.726 368.598 286.726C368.122 286.726 367.736 287.112 367.736 287.588C367.736 288.065 368.122 288.451 368.598 288.451Z" fill="#59221D"/>
<path d="M374.032 288.451C374.508 288.451 374.895 288.065 374.895 287.588C374.895 287.112 374.508 286.726 374.032 286.726C373.556 286.726 373.169 287.112 373.169 287.588C373.169 288.065 373.556 288.451 374.032 288.451Z" fill="#59221D"/>
<path d="M379.466 288.451C379.942 288.451 380.328 288.065 380.328 287.588C380.328 287.112 379.942 286.726 379.466 286.726C378.989 286.726 378.603 287.112 378.603 287.588C378.603 288.065 378.989 288.451 379.466 288.451Z" fill="#59221D"/>
<path d="M346.864 288.451C347.34 288.451 347.726 288.065 347.726 287.588C347.726 287.112 347.34 286.726 346.864 286.726C346.387 286.726 346.001 287.112 346.001 287.588C346.001 288.065 346.387 288.451 346.864 288.451Z" fill="#59221D"/>
<path d="M352.297 288.451C352.774 288.451 353.16 288.065 353.16 287.588C353.16 287.112 352.774 286.726 352.297 286.726C351.821 286.726 351.435 287.112 351.435 287.588C351.435 288.065 351.821 288.451 352.297 288.451Z" fill="#59221D"/>
<path d="M357.731 288.451C358.208 288.451 358.594 288.065 358.594 287.588C358.594 287.112 358.208 286.726 357.731 286.726C357.255 286.726 356.868 287.112 356.868 287.588C356.868 288.065 357.255 288.451 357.731 288.451Z" fill="#59221D"/>
<path d="M363.165 288.451C363.641 288.451 364.027 288.065 364.027 287.588C364.027 287.112 363.641 286.726 363.165 286.726C362.688 286.726 362.302 287.112 362.302 287.588C362.302 288.065 362.688 288.451 363.165 288.451Z" fill="#59221D"/>
<path d="M371.316 291.282C371.793 291.282 372.179 290.895 372.179 290.419C372.179 289.943 371.793 289.557 371.316 289.557C370.84 289.557 370.453 289.943 370.453 290.419C370.453 290.895 370.84 291.282 371.316 291.282Z" fill="#59221D"/>
<path d="M376.75 291.282C377.226 291.282 377.612 290.895 377.612 290.419C377.612 289.943 377.226 289.557 376.75 289.557C376.273 289.557 375.887 289.943 375.887 290.419C375.887 290.895 376.273 291.282 376.75 291.282Z" fill="#59221D"/>
<path d="M382.183 291.282C382.66 291.282 383.046 290.895 383.046 290.419C383.046 289.943 382.66 289.557 382.183 289.557C381.707 289.557 381.321 289.943 381.321 290.419C381.321 290.895 381.707 291.282 382.183 291.282Z" fill="#59221D"/>
<path d="M344.148 291.282C344.624 291.282 345.01 290.895 345.01 290.419C345.01 289.943 344.624 289.557 344.148 289.557C343.671 289.557 343.285 289.943 343.285 290.419C343.285 290.895 343.671 291.282 344.148 291.282Z" fill="#59221D"/>
<path d="M349.581 291.282C350.058 291.282 350.444 290.895 350.444 290.419C350.444 289.943 350.058 289.557 349.581 289.557C349.105 289.557 348.719 289.943 348.719 290.419C348.719 290.895 349.105 291.282 349.581 291.282Z" fill="#59221D"/>
<path d="M355.015 291.282C355.491 291.282 355.878 290.895 355.878 290.419C355.878 289.943 355.491 289.557 355.015 289.557C354.539 289.557 354.152 289.943 354.152 290.419C354.152 290.895 354.539 291.282 355.015 291.282Z" fill="#59221D"/>
<path d="M360.449 291.282C360.925 291.282 361.311 290.895 361.311 290.419C361.311 289.943 360.925 289.557 360.449 289.557C359.972 289.557 359.586 289.943 359.586 290.419C359.586 290.895 359.972 291.282 360.449 291.282Z" fill="#59221D"/>
<path d="M365.882 291.282C366.359 291.282 366.745 290.895 366.745 290.419C366.745 289.943 366.359 289.557 365.882 289.557C365.406 289.557 365.02 289.943 365.02 290.419C365.02 290.895 365.406 291.282 365.882 291.282Z" fill="#59221D"/>
<path d="M368.598 294.113C369.075 294.113 369.461 293.726 369.461 293.25C369.461 292.774 369.075 292.387 368.598 292.387C368.122 292.387 367.736 292.774 367.736 293.25C367.736 293.726 368.122 294.113 368.598 294.113Z" fill="#59221D"/>
<path d="M374.032 294.113C374.508 294.113 374.895 293.726 374.895 293.25C374.895 292.774 374.508 292.387 374.032 292.387C373.556 292.387 373.169 292.774 373.169 293.25C373.169 293.726 373.556 294.113 374.032 294.113Z" fill="#59221D"/>
<path d="M379.466 294.113C379.942 294.113 380.328 293.726 380.328 293.25C380.328 292.774 379.942 292.387 379.466 292.387C378.989 292.387 378.603 292.774 378.603 293.25C378.603 293.726 378.989 294.113 379.466 294.113Z" fill="#59221D"/>
<path d="M346.864 294.113C347.34 294.113 347.726 293.726 347.726 293.25C347.726 292.774 347.34 292.387 346.864 292.387C346.387 292.387 346.001 292.774 346.001 293.25C346.001 293.726 346.387 294.113 346.864 294.113Z" fill="#59221D"/>
<path d="M352.297 294.113C352.774 294.113 353.16 293.726 353.16 293.25C353.16 292.774 352.774 292.387 352.297 292.387C351.821 292.387 351.435 292.774 351.435 293.25C351.435 293.726 351.821 294.113 352.297 294.113Z" fill="#59221D"/>
<path d="M357.731 294.113C358.208 294.113 358.594 293.726 358.594 293.25C358.594 292.774 358.208 292.387 357.731 292.387C357.255 292.387 356.868 292.774 356.868 293.25C356.868 293.726 357.255 294.113 357.731 294.113Z" fill="#59221D"/>
<path d="M363.165 294.113C363.641 294.113 364.027 293.726 364.027 293.25C364.027 292.774 363.641 292.387 363.165 292.387C362.688 292.387 362.302 292.774 362.302 293.25C362.302 293.726 362.688 294.113 363.165 294.113Z" fill="#59221D"/>
<path d="M212.148 230.632V155.37C212.148 154.245 212.37 153.132 212.8 152.093C213.231 151.054 213.862 150.11 214.657 149.315C215.452 148.52 216.396 147.889 217.435 147.459C218.475 147.029 219.588 146.807 220.713 146.808H319.48C321.469 146.807 323.414 147.392 325.074 148.488C326.733 149.584 328.034 151.144 328.814 152.974L360.674 230.566L212.148 230.632Z" fill="white"/>
<path d="M216.4 230.632V158.204C216.4 155.933 217.302 153.755 218.908 152.149C220.514 150.543 222.693 149.64 224.964 149.64H323.731C325.72 149.641 327.666 150.225 329.325 151.322C330.985 152.418 332.285 153.979 333.065 155.808L364.925 230.566L216.4 230.632Z" fill="#98C8DB"/>
<path d="M276.369 177.7C275.246 177.7 274.134 177.921 273.097 178.35C272.059 178.78 271.117 179.409 270.323 180.203C269.529 180.997 268.899 181.94 268.469 182.977C268.04 184.015 267.819 185.126 267.819 186.249V230.632H260.094V186.249C260.093 185.126 260.314 184.015 260.744 182.977C261.173 181.94 261.803 180.997 262.597 180.203C263.391 179.409 264.334 178.78 265.371 178.35C266.409 177.921 267.52 177.7 268.643 177.7H276.369Z" fill="#59221D"/>
<path d="M316.47 186.249V230.632H267.819V186.249C267.819 185.126 268.04 184.015 268.469 182.977C268.899 181.94 269.529 180.997 270.323 180.203C271.117 179.409 272.059 178.78 273.097 178.35C274.134 177.921 275.246 177.7 276.369 177.7H307.92C310.187 177.7 312.362 178.601 313.966 180.204C315.569 181.807 316.47 183.982 316.47 186.249Z" fill="#A74602"/>
<path d="M364.96 230.632H379.332C380.611 230.632 381.836 230.124 382.74 229.221C383.644 228.317 384.152 227.091 384.152 225.813V209.469C384.151 208.72 383.853 208.001 383.323 207.472C382.793 206.942 382.074 206.644 381.324 206.644H376.744C375.995 206.644 375.276 206.942 374.746 207.472C374.216 208.001 373.917 208.72 373.917 209.469V225.828C373.917 227.088 373.419 228.297 372.531 229.192C371.644 230.087 370.438 230.595 369.178 230.605L364.96 230.632Z" fill="white"/>
<path d="M266.293 230.632H242.199C240.921 230.632 239.695 230.124 238.791 229.221C237.887 228.317 237.379 227.091 237.379 225.813V209.469C237.379 208.72 237.677 208.002 238.207 207.472C238.737 206.942 239.455 206.644 240.205 206.644H244.787C245.536 206.644 246.255 206.942 246.785 207.472C247.315 208.002 247.612 208.72 247.612 209.469V225.828C247.613 227.088 248.111 228.297 248.999 229.192C249.887 230.087 251.093 230.595 252.353 230.605L266.293 230.632Z" fill="#FFC200"/>
<path d="M362.934 230.632H377.322C378.6 230.632 379.826 230.124 380.73 229.221C381.634 228.317 382.141 227.091 382.141 225.813V209.469C382.141 208.72 381.844 208.002 381.314 207.472C380.784 206.942 380.065 206.644 379.316 206.644H374.727C373.977 206.644 373.258 206.942 372.729 207.472C372.199 208.002 371.901 208.72 371.901 209.469V225.828C371.901 227.088 371.403 228.297 370.515 229.192C369.628 230.087 368.422 230.595 367.162 230.605L362.934 230.632Z" fill="#FFC200"/>
<path d="M140.822 201.655V249.39H92.8126C91.9094 249.39 91.0151 249.212 90.1808 248.866C89.3465 248.52 88.5885 248.013 87.9501 247.375C87.3117 246.736 86.8055 245.977 86.4604 245.143C86.1153 244.308 85.938 243.414 85.9387 242.511V201.655H140.822Z" fill="white"/>
<path d="M140.796 199.857H85.533C85.4935 199.856 85.4541 199.861 85.416 199.871L73.6331 188.795H129.03L140.796 199.857Z" fill="white"/>
<path d="M175.809 188.795L164.033 199.871C163.995 199.861 163.956 199.856 163.916 199.857H142.85L154.617 188.795H175.809Z" fill="white"/>
<path d="M163.503 201.655V242.487C163.503 244.318 162.775 246.074 161.48 247.368C160.185 248.663 158.429 249.39 156.598 249.39H142.819V201.655H163.503Z" fill="white"/>
<path d="M62.996 318.382C62.9671 314.92 63.624 311.488 64.9288 308.281C66.2335 305.075 68.1603 302.159 70.598 299.701C73.0357 297.243 75.936 295.292 79.1316 293.961C82.3271 292.629 85.7548 291.944 89.2166 291.944C92.6785 291.944 96.1061 292.629 99.3017 293.961C102.497 295.292 105.398 297.243 107.835 299.701C110.273 302.159 112.2 305.075 113.505 308.281C114.809 311.488 115.466 314.92 115.437 318.382H62.996Z" fill="#59221D"/>
<path d="M89.2177 338.399C100.479 338.399 109.609 329.27 109.609 318.009C109.609 306.748 100.479 297.62 89.2177 297.62C77.9559 297.62 68.8264 306.748 68.8264 318.009C68.8264 329.27 77.9559 338.399 89.2177 338.399Z" fill="#F5BBBB"/>
<path d="M89.2176 334.903C98.5484 334.903 106.113 327.339 106.113 318.009C106.113 308.679 98.5484 301.116 89.2176 301.116C79.8868 301.116 72.3226 308.679 72.3226 318.009C72.3226 327.339 79.8868 334.903 89.2176 334.903Z" stroke="white" stroke-width="5" stroke-miterlimit="10"/>
<path d="M89.2175 321.163C91.0849 321.163 92.5987 319.65 92.5987 317.783C92.5987 315.915 91.0849 314.402 89.2175 314.402C87.3501 314.402 85.8363 315.915 85.8363 317.783C85.8363 319.65 87.3501 321.163 89.2175 321.163Z" stroke="#592D29" stroke-width="5" stroke-miterlimit="10"/>
<path d="M238.967 318.382C238.939 314.92 239.595 311.488 240.9 308.281C242.205 305.075 244.132 302.159 246.569 299.701C249.007 297.243 251.907 295.292 255.103 293.961C258.299 292.629 261.726 291.944 265.188 291.944C268.65 291.944 272.078 292.629 275.273 293.961C278.469 295.292 281.369 297.243 283.807 299.701C286.244 302.159 288.171 305.075 289.476 308.281C290.781 311.488 291.438 314.92 291.409 318.382H238.967Z" fill="#59221D"/>
<path d="M265.487 338.399C276.749 338.399 285.878 329.27 285.878 318.009C285.878 306.748 276.749 297.62 265.487 297.62C254.225 297.62 245.096 306.748 245.096 318.009C245.096 329.27 254.225 338.399 265.487 338.399Z" fill="#F5BBBB"/>
<path d="M265.487 334.903C274.818 334.903 282.382 327.339 282.382 318.009C282.382 308.679 274.818 301.116 265.487 301.116C256.156 301.116 248.592 308.679 248.592 318.009C248.592 327.339 256.156 334.903 265.487 334.903Z" stroke="white" stroke-width="5" stroke-miterlimit="10"/>
<path d="M265.449 321.469C267.316 321.469 268.83 319.955 268.83 318.088C268.83 316.221 267.316 314.707 265.449 314.707C263.581 314.707 262.067 316.221 262.067 318.088C262.067 319.955 263.581 321.469 265.449 321.469Z" stroke="#592D29" stroke-width="5" stroke-miterlimit="10"/>
<path d="M399.215 280.446C403.687 280.446 407.312 276.822 407.312 272.351C407.312 267.879 403.687 264.255 399.215 264.255C394.744 264.255 391.119 267.879 391.119 272.351C391.119 276.822 394.744 280.446 399.215 280.446Z" fill="#FFC200"/>
<path d="M399.405 286.892C400.523 286.892 401.429 285.986 401.429 284.869C401.429 283.752 400.523 282.846 399.405 282.846C398.288 282.846 397.382 283.752 397.382 284.869C397.382 285.986 398.288 286.892 399.405 286.892Z" stroke="#592D29" stroke-width="5" stroke-miterlimit="10"/>
<path d="M321.528 280.446C326 280.446 329.625 276.822 329.625 272.351C329.625 267.879 326 264.255 321.528 264.255C317.057 264.255 313.432 267.879 313.432 272.351C313.432 276.822 317.057 280.446 321.528 280.446Z" fill="#FFC200"/>
<path d="M321.132 286.892C322.249 286.892 323.155 285.986 323.155 284.869C323.155 283.752 322.249 282.846 321.132 282.846C320.014 282.846 319.109 283.752 319.109 284.869C319.109 285.986 320.014 286.892 321.132 286.892Z" stroke="#592D29" stroke-width="5" stroke-miterlimit="10"/>
<path d="M352.166 230.632H272.425L275.137 217.673C276.161 212.78 278.839 208.389 282.72 205.237C286.6 202.085 291.448 200.364 296.447 200.365H328.145C333.144 200.364 337.991 202.085 341.872 205.237C345.752 208.389 348.429 212.78 349.453 217.673L352.166 230.632Z" fill="#F5BBBB"/>
<path d="M310.246 206.615V230.773L290.678 230.636L294.609 211.995C294.9 210.625 294.911 209.21 294.644 207.836C293.509 201.988 286.461 201.745 282.594 205.352L282.819 204.828C283.446 203.36 284.491 202.109 285.823 201.23C287.155 200.35 288.716 199.881 290.312 199.88H303.504C305.291 199.88 307.005 200.589 308.27 201.852C309.534 203.115 310.245 204.828 310.246 206.615Z" fill="#59221D"/>
<path d="M294.552 212.607H309.833" stroke="white" stroke-width="5" stroke-linecap="round" stroke-linejoin="round"/>
<path d="M292.501 222.45H309.833" stroke="white" stroke-width="5" stroke-linecap="round" stroke-linejoin="round"/>
<path d="M337.095 206.006V230.108H325.416V206.615C325.416 203.55 323.405 200.829 320.563 200.348L320.673 199.603H330.687C332.386 199.603 334.015 200.277 335.217 201.478C336.418 202.679 337.094 204.308 337.095 206.006Z" fill="#59221D"/>
<path d="M325.723 212.607H336.698" stroke="white" stroke-width="5" stroke-linecap="round" stroke-linejoin="round"/>
<path d="M304.564 200.277L310.369 192.053H320.49V200.277C320.49 200.277 317.328 203.568 304.564 200.277Z" fill="white" stroke="#59221D" stroke-width="3" stroke-linejoin="round"/>
<path d="M316.296 201.609C319.372 201.244 320.499 200.277 320.499 200.277V192.053H310.378V193.1C310.378 194.423 310.875 195.697 311.77 196.67L316.296 201.609Z" fill="#59221D"/>
<path d="M321.406 183.437V184.495L310.924 187.028V184.875C310.924 183.82 311.344 182.808 312.09 182.062C312.836 181.315 313.848 180.896 314.903 180.896H318.867C319.201 180.896 319.531 180.962 319.839 181.09C320.147 181.217 320.427 181.404 320.663 181.64C320.899 181.876 321.086 182.156 321.213 182.465C321.341 182.773 321.406 183.103 321.406 183.437Z" fill="#FFC200"/>
<path d="M311.129 187.028L326.966 183.091" stroke="#59221D" stroke-width="3" stroke-linecap="round" stroke-linejoin="round"/>
<path d="M321.406 184.495L322.245 192.181C322.294 192.633 322.248 193.089 322.109 193.522C321.97 193.954 321.741 194.352 321.438 194.69C321.135 195.028 320.764 195.299 320.349 195.484C319.935 195.669 319.486 195.765 319.032 195.765H315.073C314.497 195.764 313.931 195.611 313.432 195.322C312.933 195.034 312.519 194.619 312.231 194.12L311.134 192.218H309.332C308.671 192.2 308.043 191.925 307.581 191.451C307.12 190.977 306.862 190.342 306.862 189.68C306.862 189.019 307.12 188.383 307.581 187.91C308.043 187.436 308.671 187.16 309.332 187.143H309.764C310.056 187.143 310.341 187.23 310.583 187.393C310.826 187.556 311.014 187.787 311.125 188.056V187.028L321.406 184.495Z" fill="white" stroke="#59221D" stroke-linejoin="round"/>
<path d="M310.835 187.028L315.148 186.192L313.295 186.638C313.01 186.707 312.757 186.87 312.575 187.1C312.394 187.33 312.295 187.614 312.295 187.907V188.672C312.295 189.363 311.524 189.924 310.833 189.924L310.835 187.028Z" fill="#59221D"/>
<path d="M308.912 188.336C309.089 188.336 309.265 188.371 309.429 188.438C309.593 188.506 309.742 188.606 309.868 188.731C309.994 188.857 310.093 189.005 310.161 189.169C310.229 189.333 310.264 189.509 310.264 189.687" stroke="#59221D" stroke-width="3" stroke-linecap="round" stroke-linejoin="round"/>
<path d="M317.964 192.998C317.622 193.102 317.252 193.066 316.936 192.897C316.62 192.729 316.384 192.442 316.279 192.099" stroke="#59221D" stroke-width="2" stroke-linecap="round" stroke-linejoin="round"/>
<path d="M321.406 186.518H319.068C318.947 186.518 318.828 186.545 318.718 186.595C318.609 186.646 318.511 186.72 318.433 186.812C318.354 186.904 318.297 187.012 318.264 187.128C318.231 187.245 318.223 187.367 318.242 187.486C318.472 188.948 318.756 191.558 317.877 191.558" stroke="#59221D" stroke-linecap="round" stroke-linejoin="round"/>
<path d="M316.007 189.35C316.291 189.35 316.521 188.983 316.521 188.53C316.521 188.077 316.291 187.709 316.007 187.709C315.723 187.709 315.493 188.077 315.493 188.53C315.493 188.983 315.723 189.35 316.007 189.35Z" fill="#59221D"/>
<path d="M320.108 189.248C320.356 189.248 320.556 188.926 320.556 188.53C320.556 188.133 320.356 187.812 320.108 187.812C319.861 187.812 319.66 188.133 319.66 188.53C319.66 188.926 319.861 189.248 320.108 189.248Z" fill="#59221D"/>
<path d="M367.975 230.632L361.578 225.009C357.689 221.587 352.686 219.699 347.505 219.698H328.26C324.708 219.698 321.213 220.586 318.093 222.282L309.808 226.794C305.151 229.323 299.937 230.647 294.638 230.647L367.975 230.632Z" fill="#A74602"/>
<path d="M294.643 230.632C299.942 230.632 305.156 229.308 309.813 226.78L318.098 222.282C321.218 220.586 324.713 219.698 328.265 219.698H347.514C352.695 219.699 357.698 221.587 361.587 225.009L367.096 229.563" stroke="white" stroke-width="5" stroke-linecap="round" stroke-linejoin="round"/>
<path d="M268.411 230.619L268.49 278.114C267.887 278.085 267.278 278.072 266.662 278.072C252.381 278.072 239.894 285.509 233.132 296.589C232.715 297.271 232.131 297.834 231.434 298.225C230.737 298.616 229.952 298.821 229.153 298.82H211.739V154.995C211.739 152.835 212.597 150.764 214.124 149.237C215.651 147.71 217.723 146.852 219.883 146.852H334.425" stroke="#592D29" stroke-width="5" stroke-miterlimit="10"/>
<path d="M113.915 322.11C113.915 327.086 111.722 331.599 108.138 334.903" stroke="#592D29" stroke-width="5" stroke-miterlimit="10" stroke-linecap="round"/>
<path d="M290.508 321.745C290.508 326.719 288.314 331.231 284.732 334.537" stroke="#592D29" stroke-width="5" stroke-miterlimit="10" stroke-linecap="round"/>
<path d="M232.72 147.131C228.647 137.571 219.623 131.915 209.233 131.915" stroke="#592D29" stroke-width="5" stroke-miterlimit="10"/>
<path d="M308.492 308.76V268.189C308.492 265.908 307.963 263.657 306.946 261.614C305.929 259.572 304.452 257.793 302.631 256.418L268.413 230.575" stroke="#592D29" stroke-width="5" stroke-miterlimit="10"/>
<path d="M220.691 240.627C220.691 239.743 221.042 238.895 221.666 238.27C222.291 237.645 223.139 237.294 224.023 237.293H235.016C235.9 237.293 236.748 237.645 237.373 238.27C237.998 238.895 238.35 239.743 238.35 240.627" stroke="#592D29" stroke-width="5" stroke-miterlimit="10" stroke-linecap="round"/>
<path d="M398.033 251.744L403.964 256.194C405.945 257.681 404.894 260.835 402.414 260.835H315.965C311.153 260.834 306.471 259.272 302.623 256.382L296.449 251.744" stroke="#592D29" stroke-width="5" stroke-miterlimit="10"/>
<path d="M92.3228 157.775H16.4052" stroke="#592D29" stroke-width="5" stroke-miterlimit="10" stroke-linecap="round"/>
<path d="M73.8651 166.181H0" stroke="#592D29" stroke-width="5" stroke-miterlimit="10" stroke-linecap="round"/>
<path d="M75.1884 124.192H284.01C285.836 124.192 287.587 124.917 288.877 126.208C290.168 127.499 290.893 129.249 290.893 131.075V131.915H68.3054V131.075C68.3054 129.249 69.0306 127.499 70.3214 126.208C71.6122 124.917 73.3629 124.192 75.1884 124.192Z" stroke="#592D29" stroke-width="5" stroke-miterlimit="10"/>
<path d="M334.796 264.306H387.937" stroke="#592D29" stroke-width="5" stroke-miterlimit="10" stroke-linecap="round"/>
<path d="M268.318 230.632H244.222C242.944 230.632 241.719 230.124 240.815 229.22C239.912 228.316 239.404 227.091 239.404 225.813V209.469C239.404 208.72 239.702 208.002 240.232 207.472C240.762 206.942 241.48 206.644 242.23 206.644H246.812C247.561 206.644 248.28 206.942 248.81 207.472C249.34 208.002 249.637 208.72 249.637 209.469V225.828C249.637 227.088 250.135 228.297 251.023 229.192C251.911 230.087 253.116 230.595 254.376 230.605L268.318 230.632Z" stroke="#592D29" stroke-width="5" stroke-miterlimit="10"/>
<path d="M364.959 230.632H379.332C380.61 230.632 381.836 230.124 382.74 229.221C383.644 228.317 384.152 227.091 384.152 225.813V209.469C384.151 208.72 383.853 208.001 383.323 207.472C382.793 206.942 382.074 206.644 381.324 206.644H376.744C375.995 206.644 375.276 206.942 374.746 207.472C374.215 208.001 373.917 208.72 373.917 209.469V225.828C373.917 227.088 373.419 228.297 372.531 229.192C371.643 230.087 370.438 230.595 369.178 230.605L364.959 230.632Z" stroke="#592D29" stroke-width="5" stroke-miterlimit="10"/>
<path d="M268.318 230.638H370.086" stroke="#592D29" stroke-width="5" stroke-miterlimit="10"/>
<path d="M310.221 169.248L321.9 158.038" stroke="white" stroke-width="5" stroke-linecap="round" stroke-linejoin="round"/>
<path d="M304.559 174.679L307.355 171.996" stroke="white" stroke-width="5" stroke-linecap="round" stroke-linejoin="round"/>
<path d="M269.886 207.953L298.272 180.714" stroke="white" stroke-width="5" stroke-linecap="round" stroke-linejoin="round"/>
<path d="M302.738 166.126L307.355 161.695" stroke="white" stroke-width="5" stroke-linecap="round" stroke-linejoin="round"/>
<path d="M272.573 195.074L299.098 169.621" stroke="white" stroke-width="5" stroke-linecap="round" stroke-linejoin="round"/>
<path d="M268.897 230.36L267.927 230.775L233.349 149.64H234.497L268.897 230.36Z" fill="white"/>
</g>
<defs>
<clipPath id="clip0">
<rect width="523" height="342" fill="white"/>
</clipPath>
</defs>
</svg>
