<svg width="64" height="64" viewBox="0 0 64 64" fill="none" xmlns="http://www.w3.org/2000/svg">
<g clip-path="url(#clip0)">
<path d="M6.99995 71.0041C5.93909 71.0041 4.92167 70.5827 4.17153 69.8325C3.42138 69.0824 2.99995 68.065 2.99995 67.0041V14.0041C2.99995 13.4041 2.86995 13.7141 9.28995 7.29409C9.47826 7.10579 9.73365 7 9.99995 7C10.2663 7 10.5216 7.10579 10.71 7.29409C10.8983 7.4824 11.004 7.73779 11.004 8.00409C11.004 8.27039 10.8983 8.52579 10.71 8.71409L4.99995 14.4141V67.0041C4.99995 67.5345 5.21067 68.0432 5.58574 68.4183C5.96081 68.7934 6.46952 69.0041 6.99995 69.0041C7.53039 69.0041 8.03909 68.7934 8.41417 68.4183C8.78924 68.0432 8.99995 67.5345 8.99995 67.0041V37.0041C8.99995 35.9432 9.42138 34.9258 10.1715 34.1757C10.9217 33.4255 11.9391 33.0041 13 33.0041H19.43C19.6952 33.0041 19.9495 33.1094 20.1371 33.297C20.3246 33.4845 20.43 33.7389 20.43 34.0041C20.43 34.2693 20.3246 34.5237 20.1371 34.7112C19.9495 34.8987 19.6952 35.0041 19.43 35.0041H13C12.4695 35.0041 11.9608 35.2148 11.5857 35.5899C11.2107 35.965 11 36.4737 11 37.0041V67.0041C11 68.065 10.5785 69.0824 9.82838 69.8325C9.07823 70.5827 8.06082 71.0041 6.99995 71.0041Z" fill="url(#paint0_linear)"/>
<path d="M5 37.0042H3C2.44772 37.0042 2 37.4519 2 38.0042V51.0042C2 51.5564 2.44772 52.0042 3 52.0042H5C5.55228 52.0042 6 51.5564 6 51.0042V38.0042C6 37.4519 5.55228 37.0042 5 37.0042Z" fill="url(#paint1_linear)"/>
<path d="M5 52.0042H3V54.0042H5V52.0042Z" fill="#8288A1"/>
<path d="M32 10.0042H22C21.7348 10.0042 21.4804 10.1095 21.2929 10.297C21.1054 10.4846 21 10.7389 21 11.0042V14.0042C21 15.065 21.4214 16.0824 22.1716 16.8326C22.9217 17.5827 23.9391 18.0042 25 18.0042H26V21.0042C26 21.2694 26.1054 21.5237 26.2929 21.7113C26.4804 21.8988 26.7348 22.0042 27 22.0042C27.2652 22.0042 27.5196 21.8988 27.7071 21.7113C27.8946 21.5237 28 21.2694 28 21.0042V18.0042H29C30.0609 18.0042 31.0783 17.5827 31.8284 16.8326C32.5786 16.0824 33 15.065 33 14.0042V11.0042C33 10.7389 32.8946 10.4846 32.7071 10.297C32.5196 10.1095 32.2652 10.0042 32 10.0042ZM31 14.0042C31 14.5346 30.7893 15.0433 30.4142 15.4184C30.0391 15.7934 29.5304 16.0042 29 16.0042H25C24.4696 16.0042 23.9609 15.7934 23.5858 15.4184C23.2107 15.0433 23 14.5346 23 14.0042V12.0042H31V14.0042Z" fill="url(#paint2_linear)"/>
<path d="M40 39.7841V64.0042H14V38.0042C19.15 32.0042 17.72 33.6742 20 31.0042H34C38.42 36.1442 37.15 34.2341 40 39.7841Z" fill="url(#paint3_linear)"/>
<path d="M39.9999 41.7841C39.9999 39.2641 40.2999 40.3741 38.4999 36.8641C36.0923 38.139 34.0501 40.0075 32.5668 42.2926C31.0835 44.5778 30.2082 47.2038 30.024 49.9219C29.8397 52.6399 30.3525 55.3601 31.5138 57.8245C32.6751 60.2889 34.4464 62.416 36.6599 64.0041H39.9999V53.4641L36.6499 56.8141C35.1304 54.3688 34.6301 51.4252 35.2564 48.6152C35.8827 45.8052 37.5857 43.3527 39.9999 41.7841Z" fill="#DD8B37"/>
<path d="M34 25.0042H20V31.0042H34V25.0042Z" fill="url(#paint4_linear)"/>
<path d="M34 29.0042H20V31.0042H34V29.0042Z" fill="#42455E"/>
<path d="M35.72 33.0042H18.29L20 31.0042H34L35.72 33.0042Z" fill="#F2A961"/>
<path d="M30 21.0042H24V25.0042H30V21.0042Z" fill="url(#paint5_linear)"/>
<path d="M46 33.0042C42.8355 33.0042 39.7421 33.9425 37.1109 35.7006C34.4797 37.4587 32.4289 39.9576 31.2179 42.8812C30.0069 45.8048 29.6901 49.0219 30.3074 52.1256C30.9248 55.2293 32.4487 58.0802 34.6863 60.3179C36.9239 62.5555 39.7749 64.0794 42.8786 64.6967C45.9823 65.3141 49.1993 64.9972 52.1229 63.7862C55.0466 62.5752 57.5454 60.5245 59.3035 57.8933C61.0616 55.2621 62 52.1687 62 49.0042C62 44.7607 60.3143 40.691 57.3137 37.6904C54.3131 34.6899 50.2435 33.0042 46 33.0042ZM51.81 39.6542L36.65 54.8142C30.6 45.0042 41.89 33.5542 51.81 39.6542ZM40.19 58.3541L55.35 43.1941C61.45 53.1041 50 64.4041 40.19 58.3541Z" fill="url(#paint6_linear)"/>
<path d="M61.93 47.5042C61.5577 51.4714 59.7184 55.1569 56.7722 57.8396C53.8259 60.5223 49.9846 62.0091 46 62.0091C42.0154 62.0091 38.1741 60.5223 35.2278 57.8396C32.2816 55.1569 30.4423 51.4714 30.07 47.5042C29.8619 49.7216 30.119 51.9581 30.825 54.0705C31.5309 56.1828 32.67 58.1245 34.1695 59.7714C35.669 61.4182 37.4958 62.7338 39.533 63.634C41.5701 64.5342 43.7728 64.9992 46 64.9992C48.2272 64.9992 50.4299 64.5342 52.467 63.634C54.5042 62.7338 56.331 61.4182 57.8305 59.7714C59.33 58.1245 60.4691 56.1828 61.1751 54.0705C61.881 51.9581 62.1381 49.7216 61.93 47.5042Z" fill="#CF4055"/>
</g>
<defs>
<linearGradient id="paint0_linear" x1="11.71" y1="71.0041" x2="11.71" y2="6.99409" gradientUnits="userSpaceOnUse">
<stop stop-color="#949AAF"/>
<stop offset="1" stop-color="#C6CCDA"/>
</linearGradient>
<linearGradient id="paint1_linear" x1="4" y1="52.0042" x2="4" y2="37.0042" gradientUnits="userSpaceOnUse">
<stop stop-color="#474F72"/>
<stop offset="1" stop-color="#878C9F"/>
</linearGradient>
<linearGradient id="paint2_linear" x1="345" y1="189.884" x2="345" y2="46.0041" gradientUnits="userSpaceOnUse">
<stop stop-color="#474F72"/>
<stop offset="1" stop-color="#878C9F"/>
</linearGradient>
<linearGradient id="paint3_linear" x1="27" y1="64.0042" x2="27" y2="31.0042" gradientUnits="userSpaceOnUse">
<stop stop-color="#E9A254"/>
<stop offset="1" stop-color="#F4BB79"/>
</linearGradient>
<linearGradient id="paint4_linear" x1="398" y1="169.004" x2="398" y2="133.004" gradientUnits="userSpaceOnUse">
<stop stop-color="#474F72"/>
<stop offset="1" stop-color="#878C9F"/>
</linearGradient>
<linearGradient id="paint5_linear" x1="186" y1="93.0042" x2="186" y2="77.0042" gradientUnits="userSpaceOnUse">
<stop stop-color="#949AAF"/>
<stop offset="1" stop-color="#C6CCDA"/>
</linearGradient>
<linearGradient id="paint6_linear" x1="46" y1="65.0042" x2="46" y2="33.0042" gradientUnits="userSpaceOnUse">
<stop stop-color="#DA5466"/>
<stop offset="1" stop-color="#F4929C"/>
</linearGradient>
<clipPath id="clip0">
<rect width="64" height="64" fill="white"/>
</clipPath>
</defs>
</svg>
