<svg width="64" height="64" viewBox="0 0 64 64" fill="none" xmlns="http://www.w3.org/2000/svg">
<g clip-path="url(#clip0)">
<path d="M59.0037 34H57.5637C59.9837 27.48 52.6337 21.48 46.7237 25C45.2126 23.3016 43.1147 22.2379 40.8516 22.0227C38.5885 21.8076 36.3278 22.4568 34.5237 23.84C34.2082 22.7545 33.7438 21.718 33.1437 20.76C35.0037 18 35.6237 17.05 37.0037 17C38.8537 16.93 39.0037 19 41.0037 19C43.0037 19 43.5737 14 45.0037 14C48.0037 14 48.0037 20 50.0037 20C52.0037 20 51.3537 18 53.0037 18C56.0037 18 55.3037 23.22 57.0037 23C58.3437 22.83 58.0037 22 60.0037 22C62.8937 22 63.1337 28.75 59.0037 34Z" fill="url(#paint0_linear)"/>
<path d="M57.5636 34H54.0036C54.0036 32.64 52.2936 31.87 50.8936 31.67C50.7061 31.2916 50.4409 30.957 50.1152 30.6882C49.7895 30.4194 49.4107 30.2223 49.0036 30.11C48.8149 28.2053 48.0151 26.4127 46.7236 25C52.6436 21.48 60.0036 27.48 57.5636 34Z" fill="url(#paint1_linear)"/>
<path d="M34.5237 34H6.00366C6.00586 33.0955 6.31457 32.2184 6.87939 31.5119C7.44422 30.8054 8.23182 30.3112 9.11366 30.11C9.33864 29.142 9.91589 28.2924 10.733 27.7268C11.55 27.1611 12.5484 26.9198 13.5337 27.05C13.7833 26.5944 14.1206 26.1928 14.526 25.868C14.9315 25.5433 15.3972 25.302 15.8962 25.158C16.3953 25.0139 16.918 24.97 17.4341 25.0287C17.9502 25.0874 18.4497 25.2475 18.9037 25.5C19.2788 25.04 19.7516 24.6692 20.2878 24.4146C20.824 24.1599 21.4101 24.0278 22.0037 24.0278C22.5972 24.0278 23.1834 24.1599 23.7196 24.4146C24.2557 24.6692 24.7285 25.04 25.1037 25.5C26.0127 24.9924 27.0856 24.8653 28.0881 25.1464C29.0905 25.4274 29.941 26.0938 30.4537 27C31.1885 26.9236 31.9304 27.0425 32.6046 27.3444C33.2788 27.6464 33.8614 28.1209 34.2937 28.72C34.4237 31.49 34.3637 30.3 34.5237 34Z" fill="url(#paint2_linear)"/>
<path d="M34.5237 37H6.00366C6.00586 36.0955 6.31457 35.2184 6.87939 34.5119C7.44422 33.8054 8.23182 33.3112 9.11366 33.11C9.33864 32.142 9.91589 31.2924 10.733 30.7268C11.55 30.1611 12.5484 29.9198 13.5337 30.05C13.7833 29.5944 14.1206 29.1928 14.526 28.868C14.9315 28.5433 15.3972 28.302 15.8962 28.158C16.3953 28.0139 16.918 27.97 17.4341 28.0287C17.9502 28.0874 18.4497 28.2475 18.9037 28.5C19.2788 28.04 19.7516 27.6692 20.2878 27.4146C20.824 27.1599 21.4101 27.0278 22.0037 27.0278C22.5972 27.0278 23.1834 27.1599 23.7196 27.4146C24.2557 27.6692 24.7285 28.04 25.1037 28.5C26.0127 27.9924 27.0856 27.8653 28.0881 28.1464C29.0905 28.4274 29.941 29.0938 30.4537 30C31.1885 29.9236 31.9304 30.0425 32.6046 30.3444C33.2788 30.6464 33.8614 31.1209 34.2937 31.72C34.4237 34.49 34.3637 33.3 34.5237 37Z" fill="#4DA67F"/>
<path d="M34.5236 34H25.8636V29.9C25.8551 29.4293 26.0128 28.9706 26.3092 28.6048C26.6055 28.2389 27.0214 27.9894 27.4836 27.9C27.9315 27.8102 28.3869 27.7633 28.8436 27.76C29.1736 27.53 30.3636 26.9 30.4736 27.01C31.2047 26.9053 31.9506 27.0083 32.626 27.3071C33.3014 27.6059 33.8793 28.0886 34.2936 28.7C34.4236 31.49 34.3636 30.3 34.5236 34Z" fill="#4DA67F"/>
<path d="M54.0036 34H27.8636V29.9C28.4142 29.7978 28.9765 29.7743 29.5336 29.83C30.7236 28.55 33.2636 28.33 34.9036 28.9C35.8308 28.3123 36.9059 28.0002 38.0036 28.0002C39.1014 28.0002 40.1765 28.3123 41.1036 28.9C42.0024 28.5752 42.9703 28.4901 43.9119 28.6531C44.8536 28.8162 45.7365 29.2218 46.4736 29.83C48.1236 29.74 50.3436 30.2 50.8936 31.67C52.6736 31.91 54.0036 32.86 54.0036 34Z" fill="url(#paint3_linear)"/>
<path d="M43.0037 60.83H21.0037V66H43.0037V60.83Z" fill="url(#paint4_linear)"/>
<path d="M35.0037 62H29.0037C21.5776 62 14.4557 59.05 9.20468 53.799C3.95366 48.548 1.00367 41.4261 1.00367 34C1.00367 33.9 -0.596325 34 63.0037 34C63.0037 41.4261 60.0537 48.548 54.8027 53.799C49.5516 59.05 42.4297 62 35.0037 62Z" fill="url(#paint5_linear)"/>
<path d="M63.0037 34C63.0037 41.4261 60.0537 48.548 54.8027 53.799C49.5516 59.05 42.4297 62 35.0037 62H29.0037C21.5776 62 14.4557 59.05 9.20467 53.799C3.95365 48.548 1.00366 41.4261 1.00366 34H63.0037Z" fill="url(#paint6_linear)"/>
<path d="M63.0037 35.29C62.6716 42.4903 59.5756 49.2851 54.3602 54.2603C49.1447 59.2354 42.2115 62.0077 35.0037 62H29.0037C21.7958 62.0077 14.8626 59.2354 9.64715 54.2603C4.43169 49.2851 1.33573 42.4903 1.00366 35.29C1.79366 48.49 14.0037 59 29.0037 59H35.0037C50.3137 59 62.2337 48.21 63.0037 35.29Z" fill="#C7CDD8"/>
<path d="M51.1136 31.7H50.8936C50.7095 31.316 50.4457 30.9756 50.1199 30.7014C49.794 30.4273 49.4135 30.2257 49.0036 30.11C48.8149 28.2052 48.0151 26.4127 46.7236 25C47.3264 24.6373 47.9804 24.3676 48.6636 24.2C50.8136 27 50.8936 29.39 51.1136 31.7Z" fill="#F6B756"/>
<path d="M49.0037 30.11C48.2053 29.8462 47.3609 29.7508 46.5237 29.83C45.7866 29.2218 44.9037 28.8162 43.962 28.6531C43.0204 28.49 42.0525 28.5751 41.1537 28.9C40.2266 28.3122 39.1515 28.0002 38.0537 28.0002C36.956 28.0002 35.8809 28.3122 34.9537 28.9C34.7547 28.8315 34.5508 28.778 34.3437 28.74C33.7777 27.9117 32.9211 27.3263 31.9437 27.1C32.7954 25.3344 34.2003 23.8952 35.9448 23.001C37.6892 22.1069 39.678 21.8068 41.6086 22.1463C43.5393 22.4858 45.3063 23.4463 46.6411 24.882C47.9759 26.3176 48.8055 28.1498 49.0037 30.1V30.11Z" fill="url(#paint7_linear)"/>
<path d="M34.5237 23.87C33.4065 24.7262 32.5057 25.8325 31.8937 27.1C31.4288 26.9861 30.9454 26.9691 30.4737 27.05C30.224 26.5945 29.8868 26.1928 29.4813 25.8681C29.0758 25.5433 28.6102 25.302 28.1111 25.158C27.612 25.0139 27.0893 24.97 26.5732 25.0287C26.0571 25.0874 25.5576 25.2476 25.1037 25.5C24.5522 24.8169 23.7912 24.3342 22.9382 24.1264C22.0852 23.9186 21.1876 23.9971 20.3837 24.35C18.6937 21.13 19.0037 18.65 19.0037 15H22.7237C25.3858 15.001 27.9757 15.8664 30.1037 17.466C32.2318 19.0656 33.7828 21.313 34.5237 23.87Z" fill="url(#paint8_linear)"/>
<path d="M21.5037 30.43C21.0288 30.8955 20.6516 31.4509 20.394 32.0639C20.1365 32.6769 20.0038 33.3351 20.0037 34H13.0037C13.0038 33.0154 13.2946 32.0528 13.8397 31.2328C14.3847 30.4129 15.1597 29.7721 16.0675 29.3908C16.9753 29.0096 17.9754 28.9048 18.9425 29.0897C19.9096 29.2745 20.8005 29.7408 21.5037 30.43Z" fill="url(#paint9_linear)"/>
<path d="M30 34H20C20 32.6739 20.5268 31.4021 21.4645 30.4645C22.4021 29.5268 23.6739 29 25 29C26.3261 29 27.5979 29.5268 28.5355 30.4645C29.4732 31.4021 30 32.6739 30 34Z" fill="url(#paint10_linear)"/>
<path d="M20.3837 24.35C19.8062 24.6108 19.299 25.0049 18.9037 25.5C18.0389 25.0138 17.0216 24.8744 16.0579 25.1102C15.0942 25.3461 14.2562 25.9394 13.7137 26.77C12.5556 25.833 11.6214 24.6491 10.9796 23.3048C10.3377 21.9605 10.0043 20.4897 10.0037 19C16.3437 19 17.1937 18.87 19.0037 19.47C19.1156 21.1756 19.5858 22.8384 20.3837 24.35Z" fill="url(#paint11_linear)"/>
</g>
<defs>
<linearGradient id="paint0_linear" x1="47.6437" y1="34" x2="47.6437" y2="14" gradientUnits="userSpaceOnUse">
<stop stop-color="#6AB891"/>
<stop offset="1" stop-color="#85CBA9"/>
</linearGradient>
<linearGradient id="paint1_linear" x1="46.7236" y1="28.99" x2="58.0336" y2="28.99" gradientUnits="userSpaceOnUse">
<stop stop-color="#FBCC88"/>
<stop offset="1" stop-color="#FFE5C3"/>
</linearGradient>
<linearGradient id="paint2_linear" x1="177.124" y1="233.443" x2="990.514" y2="233.443" gradientUnits="userSpaceOnUse">
<stop stop-color="#6AB891"/>
<stop offset="1" stop-color="#85CBA9"/>
</linearGradient>
<linearGradient id="paint3_linear" x1="1097.77" y1="28.0002" x2="1097.77" y2="147.996" gradientUnits="userSpaceOnUse">
<stop stop-color="#6AB891"/>
<stop offset="1" stop-color="#85CBA9"/>
</linearGradient>
<linearGradient id="paint4_linear" x1="32.0037" y1="66" x2="32.0037" y2="60.83" gradientUnits="userSpaceOnUse">
<stop stop-color="#A0A6BA"/>
<stop offset="1" stop-color="#C6CCDA"/>
</linearGradient>
<linearGradient id="paint5_linear" x1="32.0037" y1="62" x2="32.0037" y2="33.96" gradientUnits="userSpaceOnUse">
<stop stop-color="#D4D8E1"/>
<stop offset="1" stop-color="#F3F4F5"/>
</linearGradient>
<linearGradient id="paint6_linear" x1="1985" y1="34" x2="1985" y2="762" gradientUnits="userSpaceOnUse">
<stop stop-color="#D4D8E1"/>
<stop offset="1" stop-color="#F3F4F5"/>
</linearGradient>
<linearGradient id="paint7_linear" x1="721.509" y1="201.095" x2="721.509" y2="135.244" gradientUnits="userSpaceOnUse">
<stop stop-color="#FBCC88"/>
<stop offset="1" stop-color="#FFE5C3"/>
</linearGradient>
<linearGradient id="paint8_linear" x1="26.7537" y1="27.1" x2="26.7537" y2="15" gradientUnits="userSpaceOnUse">
<stop stop-color="#8CDD79"/>
<stop offset="1" stop-color="#D4E6B6"/>
</linearGradient>
<linearGradient id="paint9_linear" x1="21.5037" y1="31.5" x2="13.0037" y2="31.5" gradientUnits="userSpaceOnUse">
<stop stop-color="#DA5466"/>
<stop offset="1" stop-color="#F4929C"/>
</linearGradient>
<linearGradient id="paint10_linear" x1="270" y1="159" x2="270" y2="133.95" gradientUnits="userSpaceOnUse">
<stop stop-color="#DA5466"/>
<stop offset="1" stop-color="#F4929C"/>
</linearGradient>
<linearGradient id="paint11_linear" x1="221.548" y1="134.783" x2="113.804" y2="134.783" gradientUnits="userSpaceOnUse">
<stop stop-color="#8CDD79"/>
<stop offset="1" stop-color="#D4E6B6"/>
</linearGradient>
<clipPath id="clip0">
<rect width="64" height="64" fill="white"/>
</clipPath>
</defs>
</svg>
